<mxfile>
    <diagram id="cbv08Kr_spT8gFcqE1N7" name="Page-1">
        <mxGraphModel dx="877" dy="670" grid="1" gridSize="10" guides="1" tooltips="1" connect="1" arrows="1" fold="1" page="1" pageScale="1" pageWidth="850" pageHeight="1100" math="0" shadow="0">
            <root>
                <mxCell id="0"/>
                <mxCell id="1" parent="0"/>
                <mxCell id="27" style="edgeStyle=orthogonalEdgeStyle;rounded=0;orthogonalLoop=1;jettySize=auto;html=1;entryX=0.5;entryY=0;entryDx=0;entryDy=0;entryPerimeter=0;" edge="1" parent="1" source="19" target="21">
                    <mxGeometry relative="1" as="geometry"/>
                </mxCell>
                <mxCell id="28" value="&lt;font style=&quot;font-size: 18px&quot;&gt;Script Load&lt;/font&gt;" style="edgeLabel;html=1;align=center;verticalAlign=middle;resizable=0;points=[];" vertex="1" connectable="0" parent="27">
                    <mxGeometry x="-0.8506" y="3" relative="1" as="geometry">
                        <mxPoint as="offset"/>
                    </mxGeometry>
                </mxCell>
                <mxCell id="29" style="edgeStyle=orthogonalEdgeStyle;rounded=0;orthogonalLoop=1;jettySize=auto;html=1;exitX=0.5;exitY=1;exitDx=0;exitDy=0;entryX=0.5;entryY=0;entryDx=0;entryDy=0;entryPerimeter=0;" edge="1" parent="1" source="19" target="22">
                    <mxGeometry relative="1" as="geometry"/>
                </mxCell>
                <mxCell id="30" style="edgeStyle=orthogonalEdgeStyle;rounded=0;orthogonalLoop=1;jettySize=auto;html=1;exitX=0.5;exitY=1;exitDx=0;exitDy=0;entryX=0.5;entryY=0;entryDx=0;entryDy=0;entryPerimeter=0;" edge="1" parent="1" source="19" target="23">
                    <mxGeometry relative="1" as="geometry"/>
                </mxCell>
                <mxCell id="19" value="" style="shape=image;verticalLabelPosition=bottom;labelBackgroundColor=#ffffff;verticalAlign=top;aspect=fixed;imageAspect=0;image=data:image/png,iVBORw0KGgoAAAANSUhEUgAAAggAAAGBCAYAAAADq0nuAAAgAElEQVR4XuydCZiOVRvH72Fm7PtOCJWdskSUQpt9V1nK0qaiRZv2vSiVPiFbJRJZKkuWRBuKVkuIZN/3Zcz+Xb97evR657xmzIyZ17jPd7n0eZ/lnP95zrn/515Dtm/fHp87d26xZggYAoaAIWAIGAKGgIdAyOHDh+Pz5MljiBgChoAhYAgYAoaAIXASASMI9jEYAoaAIWAIGALphEB8fLycOHFCtm7dKtu3b5eIiAgJDw+XIkWKSJkyZYQDe5YsWQL2Jjo6Wvbs2SNbtmyRgwcPSkhIiOTPn19Kly6tzwgNDQ14b2y8yK5j8fLLrhDZcUgkJkYke3aRioXjpXrhEMkdJhIS8t/tRhDS6aOw1xgChoAhYAic3wjExsbKtm3b5NfffpVcOXPJRRddJPny5ZPjx4/Lps2bZNfOXXLRxRdJpYqVJCws7BSwIBaHDx+WX3/9Vfbv3y8VK1aUYsWK6TU7duyQv/76SwoVLiSXXXqZ5M2bNxHQx6NFvt0ssni7SMVCIrWLxUve8BDZejReFm8LEX5vc1HCb6H/8hMjCOf392qjNwQMAUPAEEgHBBDw69evlz/++EMaNGggRYsWVU0BGgB+8wjAsmXLVMDXrl37FG3A0aNHZf78+VKhQgWpVCmBQHAvjXujoqJk9erVqlm47rrrJEeOHCdHdSJGZOoakWNR8dKmokjhnCGSJUSEu+NFJCZWZN3+eJm4KkTaXCJSp0SCJiHNCEJcXJxEnIiQiOMR2mnUINZSjwBYMtG5cuWSrFmzpv6B9gRDwBAwBAyBdEfg+PFjMn/+V1KvXj09+XvC3b8jR44ckTlz5kidunWk3IXl9Gfk6Q8//KCmhGrVqgU0I8TExMhvv/2mGglIiGduWLxNZNFGkbtrx0vBHD42BJ+Xx8WLrN0bL1+sD5E+tUTyZksjggB7OXDggKo9GHi2bNmU0VhLPQJM+L59+3SiwdZIQuoxtScYAoaAIZCeCHCAXrlypcrFGjVqBCQHnjaAPf/333+Xq6++Wvf+nTt3ysKFC6V9+/YqX0/X8Gn49NNPpVmzZuqTcCI2Xkb8GiKdKoqUSiIeAbE9fZ1I7mzx0rRsSNpoEBBiOFsU/ZccuPlJek5H5noX7BF8CxYsqA4s1gwBQ8AQMATOHQRQ/0+dOlWaNm2qpoWkGtd//fXXcuWVVwppCNAKYI5Ae3A6B0aeCxmBXOD4WLVqVdkXITJhtcgdNeMlR2jS0nnN/ngZtyJEnr0yjTQIkZGR6k0JQUj69UlBY7+7EDh27JiqjWCE1gwBQ8AQMATOHQSQkSNHjpTevXtLzpw5k+w4Qn7u3LlqJsCJ8fvvv5dLLrkkWeQCLcWuXbvUF6Fu3bqy66jIrHUiPS4T9TtIqh04IfLIXJGhLdKIIBCygd3EE150EK0CHpuuhsoEVXkgG0xSAzgffwdjPFiTwz7PR3xszIaAIWAIBCsCEIRRo0ZJr169UkQQ8D/AOfF0vgve2JG/RDWgda5Tp44ShJn/EoSsySAI+yNEHpsv8r/mZ4kgQA42bNigDhX+JIDf0DYQs4nqxEhC8j5pIwjJw8muMgQMAUMg2BDATDxjxgypf0V9KVmiZJLdg1AsWrRITQw4qOO/gAYZgZ+UiYGD+U8//aQmaUIh0Qh8uBITg0iuUyMnnf34bbfIjPUij9U7ywTh4osvTjQYBk6CCFhO8RLFNRbUnyQwwM2bNwthHV7Lnj27lCpVKlnsK0n0A1zACR0CU6BAgaAjLkYQUjqrdp8hYAgYAhmLACYDQhw5HBO+eDpnc2Qj5oF//vlHGjZsqNfitDhv3jxp1aqVHqxP15Bjn332mbRu3VoP6VFx8TLm9xBpdIFI5cKnNzNEx4pMWiNSoUC81CuRRk6K/iYGT4PgIggwKYQ/Zgauu/DCCxOBxfPGjh2rZouChQpKVGSUenFeeuml0rZt2zT35IeQwM7mfzVfQiREgQ22aAEjCBm7wO3thoAhYAikBoGoqEiZMWOm1KpVS8qWLevUBHgRgQj4Zs2bSYniJfSVyKhffv1FIk9EyuWXX64OiK6Gc+PixYslX/58UrNGzZPvWLVX5P1fRPo3iJfiuUJOyZboPSc2TmTZ9nj5ZlOI9KsnkiM0AzQIdAZhh0DGToLjhX/GKI8g4LGJkwUahiVLlggJJPr06aP5Fjas3yBoI4oXL662GQgHNhdYGgwLtUyx4sUkb5686rCxbt06fQ/vK1So0CmTw33Tp0+XjRs3Krvr1KnTadNVpuYjSem9RhBSipzdZwgYAoZAxiOA8EfWIMeQQ+XLl1dB7yVKggRwECZTIodrrvE9qBK+iC8Csg45hbOjZ26IjYuVY0ePyfLly/Xf0Dz4kgg0A4s2i/y6XaRFRZEK+UXCsyYkQyL9ckS0yJKt8bJse4h0qiJyScEEvNIkUdKZaBC8afKySqFBcBGEMWPGKEBoDVDPEANKikqcPKZNmyZ49RcuUliJQsdOnaRAgfwy7sNxSgzQUkA+unbtqmGBEyZMUFLARJCvAU9SX2c/rkctQ5Yq+mUEIeMXk/XAEDAEDIHMhgDyBTPD0qVLJCoqWsqVK6dZExH+mBUwq5Mg6YJSFzg1DByKV6xcIevWrlOCgRzzohY2bdoklSpXkqpVqjo1DDFxIiv3iExZK1Ikl0itovGSJyxEth2Ll592hEj+bCK3VBEplvO/egxBSxBGjx6tBSkAD1ME7frrr9e4zlWrVum/I+wR6pfXqycnIiKUnXXr1k3B/vDDD6Vx48ZqxyH9JAkmeM7EiROlXbt26uzh2yAhn3/+uWo3jCBktmVp4zEEDAFDIHgQiImJlgMHDipZwCyAVoDDLI6FJEI6nfM+sgoigV8Cso6GNoF70Z6fzomRREhHouNl8+EQOXRcBLNCeKhIsTzxUip3iIShVfCBKWgJAj4I5JvGXsOAARBHRRgUQj7ixAkpkD+/mgWwyezYuVOyhIRIly5dFPDx48erGgbvz7Vr1+qzGPnRI0c1O1XlypWNIATPerGeGAKGgCFgCAQZAkFNEC677DLNW+0xIlQpODh+8MEHcvvtt6saBfMBwh5WRTUrNAiYH0hK0aFDB0HtsmbNGr0+OiZaJk+arJoIJQw+zTQIQfZlWncMAUPAEDAEMhSBoCQIaAkQ/NWrV1ctgK/KBOEPQfCqYGE2wJGDvNP4KXh1C1DdYCpA7YJHKM/kWvwW2rdrJ3nz5ktEECiQgYmhTZs2FsWQoZ+lvdwQMAQMAUMgoxEISoKApgDbCs6LrprYkASIACko+R0HQxoeoEQ1YGIgKqFjx46aO4GICSIZMFPg1IGpwr8llMuMFGw0rt8zeqIsiiGjZ8DebwgYAobA+YXAWSUIxHoGcrbwzAV4cfqTgDOdAp5FhMNHH32kzhqEixDN0K17N03ElBmaEYTMMIs2BkPAEDAEzh0EzgpBwJ7PCd+LPggEByd6/5wEKYUuNi5O9uzeraEi4dnCpWyZsqphyCypnI0gpPTLsPsMAUPAEDAEUoLAWSEIKemI3XN6BIwg2BdiCBgChoAhkJ4IhOzbty8+qdzOSXUIB0AEmJUiTgqplP8OvuR9QONizRAwBAwBQ8AQONsIhKxduzY+LZzyEFzY/a2dHQS8NJyBSmifnbfaUw0BQ8AQMATOVwTSxMRwvoJn4zYEDAFDwBAwBDIrAkYQMuvM2rgMAUPAEDAEDIFUIGAEIRXg2a2GgCFgCBgChkBmRcAIQmadWRuXIWAIGAKGgCGQCgSMIKQCPLvVEDAEDAFDwBDIrAgYQcisM2vjMgQMAUPAEDAEUoGAEYRUgGe3GgKGgCFgCBgCmRWB85YgUL+BlNCkYua/rRkChoAhYAgYAucbAshA74//2M9LgkCNiP3792sVSMpGk6XQmiFgCBgChoAhcD4hADGgwGHhwoX1b//aRecdQUBrQOXH8GzZpECBAhKaNatpEM6nFWFjNQQMAUPAEFAE0J1Hnjghe/bskaJFi0hOv+rH5x1BiIyKlH1790mxYsUka9as9pkYAoaAIWAIGALnLQKY2I8cOSKHDh2SCy644BQtwnlHEI4fPy78QaVizRAwBAwBQ8AQON8RiI6Olo0bN8pFF12kZnevnTFBgG1QvTE8PPyUB50pwPgBxMbFSnhYeCK7x5k+S1Ul8fGnPMdzPPS3qfgTBK47nZNiIOeNlPTR7jEEDAFDwBAwBIINAeTx33//nTqCgCA9ePCgOviVLVtWQkNDUzxOHAM3bdokpUqVkpSWm6ayIc+JiooS/jssLEyyZcsmYeHhEhUZqYI/R44cpxAHf4Lgjcc1EO6nQiVlrM0ckeKpthsNAUPAEDAEghiBVBMEjxxs2LBBhW7FihVTRRAiIiJk9erV+oyLL744kSA/HZb05dixY7J161a1naAeoaEaQbOB8yH/njdvXilTpswpmg5/grBv3z4lKlzrq1rheZCOAwcPSLGixdQ2YyQhiL9w65ohYAgYAoZAihBIFUFAIKM1+Oeff/TEnj9//jQjCDwPDUL58uX1b3+TgP9oiUJAqG/ZsllOnEjQEvg37xmEbVSrVu0UIuMiCFu2bDlJUnyfhSmFMfN3oUKFpETJkhr14Nt4P2Qne/bsiQiGf9+SGltSM8vz0JagKeFZ3n/7E5uknpOa3yFN4OEab0qf640LsmgkLKUo2n2GgCFgCKQMgRQTBDZv8gX89ddfKhhonLZxZnCZGPg3X0GIQEeo+DeE6rp1ayUyMkp/QpWPJoG/AzWowNEjR2Tt2jUn7+PakCwhkiUkRGLj4hLiNv5t9KVq1aqnmDACEQQ0ImhGfBugoV3gbzCgf5Aj33b8+DEZPXqM3HTTTRoZ4bXIqCj5e8OGkxqMzZs3q1kGwZrSRh8++eQT6dChg2I6bdo0fS8ak/RqkKmpU6fKbbfdlmbvhSSOnzBemjRuokTRmiFgCBgChkD6IZAiggA5OHDggDoveOSALmfNmkWyZUss6BCwbPCo+b129OhR9Y6kA76NZyMYfE/ZaBAgHq6EDdwbHRMja9es0XAMJQYhIZIvXz4pXKSIHDl8WHbv2S3xcf8xhCxZQuTiiy85JWLhTAiCvjM6WskBmoRy5cpJwYIFTxkH43v77belW/duUrhQYdUiQAJ2794t740cKZ06dtT/P3HiROnatauaKhDucXGxEhMTq7+hEfDwAKew8DDJFp5N34OWwDtZ//rrr7Js2TK59dZb5ZdffpGVq1bJTZ07K2Hz7ud54AK2/M2JnPt5Dv+fd6mDaGys3oPPhud4yn9zjeeE6p3mvd9jY2Nk27btOpZ7771XyRzjhQRyL8/13uP7LI8Uec/11X7wDvqyZs0axYax8Axw5zq+qfTUkKTfkrQ3GQKGgCEQHAicMUHwyAHCPbmZBhHsVapUUWHhNYT5n3/+6dQiuKBB6FSoUMFpbkAYr1q16iTZyJMnj57qISR79+5VB0r6iiDyBGCpCy6QMqVLn9RqnClBoI/cs3btWtUAuAjCwIEDVbjh9xAaFiZtWreWdevWyaxZs9QUk79Afln20zK5/PLLpWq1arJ82TIVqvSXsV573XWybetWWbp0qRIytBQtWrRQDL788kupWbOmEq/p06frqf2qq67S/+Y65qdz584SceKEfDp5smoXIE2ffvqpXks4Z526dWTypMl6/Q033CDfff+9HD50SM1Gbdu21X7MnDlT2rRpo/eiIeC/ixcvruQBLcq8efPUlIJA37lzp9x99916D3MOAbn22mtl4cKFsmvXLv3/jLtSpUp6TatWrfQ5PPf666+XkqVKybSpU6VFyxZSpHARnS+0IQ0aNFBCMH/+fE3cATGoUaOG/rsv6QyOJWW9MAQMAUMgcyBwRgThP1U+JoAEs0JyWloQBN6DYLzkkksSqfwRaJgX4uISQhq5Bt8Az6ThmTMgB0ePHpGDBw+pQMNR0TsNnw2C8PLLL0uTpk2lapUqMnfuXPVVqFypkowePVo6deqk45gwYYJqECBMCO9evXrpOD/++GO59NJL5eeff5ZLKlaUBldcoYIWbUXt2rXVtIPpglP4Bx98IJ06d5Zs4eHy0UcfSZu2bWTKp1PkyiuvVIGKYIUAEBmyZMkSFa4//vijtG/fXoYOHarP4OT//vvvS926dfW3Vq1byY7tO2TGjBnSvkMHKZA/v3zxxRfy0EMPqYaA+afv4dnC5frrrlcS88MPP+hzhg0bpj4e1113nZKNn5Ytk2uvbSoHDxyUyZMnS58+fbTP9C8kSxYlMI0bN5bLLrtMCcEdd9yh74B4vPvuu9KsWTNZv369EpIuXboo2cCk0r17d51ra4aAIWAIGAJpj8CZEYT4eD2Rczr1IgSS06W0IggIMkwNnGZ9my9B4HRZpWoVyZf31Gs0rwHmh39zI/D/s2TNqv/f0wb4JkpKcHjcoidefx8E791JaRDefPNN6dmzp5QsWVIWLVqkTpSc8keMGKHmADQqCEquQeghYG+//Xb993HjxknW0Kx6kv7tt9+kSNEiaqqoV6+eEgPPBIOJ4/vvv5eOHTuqRgZByil/ypQpetLevn37SXMFz+X0D0Hg+RCNn376SceHcF68eLH6EPz++++qcUHzgXaBfhPSCVjNmzVXTQDmlXfeeUduueUW1WLw3vHjx0vv3r1lzJgx+hzIDJqPb775RqNLiPzYumWrPP744/LVV1+ptoTn0C/MB2g1+G+IBe/wCAJaCAgIpAOtAVqRQQMHKunh/1szBAwBQ8AQSHsEzogg8Ho2dYQOdQv8/QcCdS8tCAI2cgQOQsTf6//goUOy5s/VEhubUIURgVy6dOlTPN8RQKjMUa/zLP92NjQI+CCgEUCgf/vtt3qa9wgCp1/v9I8w5Teu8SUI2N2rV6+uQhPMv164ULUREACa55DIeOvVryfjPxovlStXlvr168uvv/0qc76coyf9du3ayezZs1Xgoq0Ax9FjRsvRI0fVWdPzpQCbXr17y+ZNm2TSpEnaP0wTaDPoAyYLcIWc4IT5v/8N1Wdziv/jjz+UlNx1113y4YcfKumBjHz99deycuVKNSFgDkDrgBYC0sH1EBHIDdoJ5gDNStWqVYQgFOYMDQIEAR8L+n3NNdeotmXIkCGKAyTHmiFgCBgChkDaI3DGBMETTJx4UflCGLwWEoKDYJZEAhyCwEnc1wcBoYT93j+SAeHj+0yejWDBJs9p1uWYRmTAij/+OGn2wGxw4YUXSuEihSVEQiQ6Jlo2b9os+w/sl4IFCupv/rbr9CIIqNI5eSPE8SHA3ABpwKyAicH7b0wB+AF89913Soqw2yPkK1aqKE2bNJWZM2dI+QoV5OsFX8vNN9+s9yOYIR4QkgMHD8qbgwcrZpAU3oNG4OGHH9Zr8QHgZH//Aw/I9u3b1Bfhpptvkrp16uqpH9MDz+nStYt88P4Hgp/HfX3vk40b/5HVq1ZJ8+bN1f8ADUajRo3UFML3gInBlyCgKWCe8bNAM0G+DEwIkBpwQFNw5513qoMjGpsHH3pQtmzeor4avGPkyJHqdwEhBROIBnkuyJVxzz33qCnJmiFgCBgChkDaI5AiguCRBJzS2Kw9TQJ2Y1fiIIQ6Qsk3lh0TBULHv3HiJfTPM2FAKnACdGkOvHshFNyzY8eOk+QC9XzuXLlVW4B624uMoC9FixZVkuDbn0AEgdNxoBDEhJDMdU4nRU6/CLRatWqpPR3heezYUY2eWL58uQrrhg0bqmCl/5AoyAAmFEgSTpaQAjAmMgGsMK1cccUV+jyewYkfzQP/xu8IYnwIGDP48WzPYZNoADDgxA0GEDyELPfSV0wN3AuhYD7xQ0CDgYYBEwf/xr0Icea8Tp06cuz4MVn8w2J9Lk6aEMTatesIURWYLLif0z6mC66BFDAX9AlceC4aH4gSOBLhASa8A40J72PsFSsyBzm0T4zXM4nwrVkkQ9pvCvZEQ8AQMARAIMUEgZs9cwMCA01AWidKQtBh3/Z1OAw0bQjEtevWyaGDB087s5ACCAfqb19TRaBMioG0Fh5JwmzhCnM8XSe8Og++TpScrvmDTZ9x+5IXz8mSfws2gUjf1J8jS2LNkS+B4xr6H4ft4N/rz3QJ8gy+M94VbDic6VjsekPAEDAEgh2BVBEET0hyGuUEz8kwrVItIwwQvJySkyMMcEA8fuyYbN6yRQ4eOJDITOGZKjjFQg78M/O5ajHgkJmchgOfv+Nkcu7zrvFCBtEycIJOTS2LM3mvXWsIGAKGgCFgCARCINUEwSMJqPdRH+MrkBoBhyoaj3js36czK5xOk4Bam5M9Qh/h6yXWKVKksOTNm8/txxAZqU58XkZEly9EoHee7vSc3E/Py8+QGuyS+y67zhAwBAwBQ8AQSAoB5BIWAlIC+Grcz7jcM6pmBDL24dTkzcdUEBUdJTlz5Eyy/sLpBkd/fJ0dCWkk7XKg5oX1pYSUJAWy/W4IGAKGgCFgCJxrCCAXOfzjs5cqgsDAvdN6akDw4vtTW8DoTPuAKgWmRHrmXDlTR07O9N12vSFgCBgChoAhEEwIoD3YuWuX5MieTQoUwAn9vwP2GWsQgmlgKekLxITIAuLz8aUgDNJVTColz7Z7DAFDwBAwBAyBcwWBuPg4ORGRULcHc7+/VeC8IwieBgRNAnkTyJ9gBOFc+Zytn4aAIWAIGAJpiUBoWKiEh4U7ffbOS4KQluDaswwBQ8AQMAQMgcyIgBGEzDirNiZDwBAwBAwBQyCVCBhBSCWAdrshYAgYAoaAIZAZETCCkBln1cZkCBgChoAhYAikEgEjCKkE0G43BAwBQ8AQMAQyIwJGEDLjrNqYDAFDwBAwBAyBVCJgBCGVANrthoAhYAgYAoZAZkTACEJmnFUbkyFgCBgChoAhkEoEjCCkEkC73RAwBAwBQ8AQyIwIGEHIjLNqYzIEDAFDwBAwBFKJQMi+ffvic+fOncrH2O2GgCFgCBgChoAhkJkQCFm3bl189uzZM9OYbCyGgCFgCBgChoAhkEoEzMSQSgDtdkPAEDAEDAFDIDMiYAQhM86qjckQMAQMAUPAEEglAkYQUgmg3W4IGAKGgCFgCGRGBIwgZMZZtTEZAoaAIWAIGAKpRMAIQioBtNsNAUPAEDAEDIHMiECGEoT4+Hg5cuSI7NixXY4cPSo5c+SUkiVLSt68eSVLlizphndcXJzs379fYuNipXChwpI1a9aA746NjZV9+/ZJdHS085ps2bJJoUKFJCQkJN36by8yBAwBQ8AQMATSGoEMIwiQg40bN8rTTz8t33//vRw/flwIt7z44ovlxRdflAYNGqSbkD148KD07dtXduzYIR9P/FiKFikaEOddu3bJPffcI2vXrnVeU7t2bRk1apSEh4en9VzZ8wwBQ8AQMAQMgXRDIMMIwtGjR+Xee++VSZMmSc2aNaVy5cryzz//KFmAHEyZMkWKFi0qEAlO65zy0SqEhYWdJA7eb5zqQ0ND9Q8nd/49JiZGQUQbwH/zG/fzHJ7HNaFhoRKaNVQ1AjfeeKNs3rxZfv75ZylSpIjey7v8NRl79uyRxx9/XNavXy8nTpyQ5cuXK7GpXr26oD249NKaMmjQ69oP/37xTN/x0Df/PnMf76SP/M3vXp99r0+3L8ReZAgYAoaAIXBeIpBhBGHLli1yww03CCfyufPmSrWq1WTXrp3SrVt3OXDggHz44Ydy6aWXqpbh888/l7/++ksuueQSadW6tVQoX14FLUJ65syZ+jcEo2HDhlKjRg2JjIyUcePGqZBGcC9evFhuuukmKViwoHz77bfyzTffSEREhBKR66+/XicegvD333/LRx99JN99950K91atWsnll1+ugt9r/DvaDv5mDFdccYWUL1/+JKHhOvpMv/i9dp060qJFCylVsqQK+jVr18jsWbNl06ZNUqlyJWnYoKFUrVZNoqOiZPLkydrnEiVLyOIfFkuxYsW0X2vWrJGvvvpKypUrJ506ddJ/NxPGeblebdCGgCFgCKQbAhlGEHbv3q0CmBN78+bNpWPHjlKrVi0dOAK5RIkSsn37dunatausXLlKcubMoYIfYTxy5Ei183fp0kX+/PNPyZkzpxw7dkwKFS4sH40bJxdddJEKdogGpCBHjhwyYcIE+frrr+Xll1/Wk7mnZbj99tvlkUcekfbt22tfSpcuI8eOHVXfCO4dP368NG3a1DkhCPmqVauqWeTLL79UjQcakB49egjjQ7OAluGqq66S0WNGy6GDh7TPkB36DEkpXLiwjBgxQsnQ1VdfrWYOfDAOHz4sUVFRUqlSJfWP4A+akO7du8s777yjY7JmCBgChoAhYAicLQQyjCCgQv/ggw/k1VdflW3btqkpgJoQCMpbb71VycMrr7wib7/9trRp20b69e2np3vs+wh0TuXPP/+8XHbZZXLzzTfLs88+K/Pnz9d/g1TUqVNHTQdt27ZV4Y8gh4QguIcOHaokhGvz5csno0ePlttuu01+//13ufvuu/W6119/XWbNmiVvvvmmPPDAA84Tuz9ByJMnj5IDNB797u8nnTt1lieeeEJ++OEH7TeEg+fVrVtX+8/Y582bp34Yd9xxh2pAIAb/+9//BL+IBx98UE0MEALwevjhh5X8zJ49WwmUNUPAEDAEDAFD4GwhkGEEgQFxIkYdz8l+xowZas9HgOfPn1+GDBmimgJO5JyyS5UqpQJ/69atqnYfNXqUzJ0zV6ZNm6YOg1u3bZPYmBh57LHHVNgihDmBQxpwHMRs0LJlSylevLj89NNPgjDftXuXqv3xNWjVspU+Z8mSJXJJxUtkyNtD5NFHH1WSwt+uqAp/goAwh7DQxwsuuED7vWnzZjl08KCgqXjuuedk7ty5akrAbICGBMHP8/v166cEAc0A1xw6dEgaNWqkWCxdulSxwiSSK1cumTNnjj7fmiFgCBgChoAhcLYQyDCCgL/B++9/oGp4Tu94/SNwEeIpu7oAACAASURBVJYISP5t9erVsmzZMj3RY3/H7o+ZgVM0J/8HH3pIihcrpoIf2/6cL+foKdsjCNjpIQNlypRRGz6aBAgCRARBjJDmmdj027Rpc9JJkdM5BIVnnQlBQAsCQdi7d69qMXgXJIV3QFLQDqBRoD833HijbPrnH5k+fbr079//JEGAAHgEAdMEBOHHH39UgoC/A6YJIwhnaznYcw0BQ8AQMAQ8BDKMIHCyRrD/s3GjvPX2W1K/Xn21+6P2x4kQTQCCdsyYMdKnTx/p2bOnrFixQrUN9erVU/KAKh5C0bt3b3nqqadUm4BQv/POO1WDwKkfgsFpG7t/kyZN5PiJ4zLugwQHRlT4kAP8A7p17aYE4ZdfflHBnhKCgInklltukQULFshLL72kvhUIe/wkWrdurf3DrDJw4ED9jbFOnTpVCcL999+vGoSkCAK/4+9gGgRbxIaAIWAIGAJnE4EMIwiRUZEyfNhwzXlAVADqeLQDOOOhSkeQ4sSHUx+qf071OB2icXj33Xc1+gHfgAIFCqiQx7mP3yELkIv69eufJAilS5eW4xHHNTxx6P+GqoMjjRP9M888o/fg85BagoCTIgSmV69e6kNAuOTOnTulQoWLZMLH42XGFzP0ffQXfwR+w2xy1113KcFBY2AE4Wx+7vZsQ8AQMAQMgeQikCEEwYsgQGOwcOFCFar4HmTLnk3KXVhOQxKrVKmikQa//fabhhBCABCqOPehHUAAo13YsGGDquyJgPj1119V+KPeh2CgJUD4Yo7gWdj833//fTUtYA7gns6dO0m2bNk1WoFICHIz4J+A3Z+T+nXXXScNr7xS4mJjT+ZW8MClD2gxIAaQAu6LjIqSH77/Xh0cyZmA7wTaA8Ivd+7aJeM+/FC1GZhJIEL4RhAF0bJVSxn/0Xj1hyBSAbLE+BjDnXfeIbGxcepMiSmmW7duGung5X5wTTZmjUDZHrme5wTKVok5w8sj4f9s+sO9rjBL3xwPrj6dLo+Db34K171na6xgBFau5p93w/ea5IyVuXS1pMbKfYGyeZ5uXpkTV+4O+uCtubMx1tPNDWPFzBaonW6sqfkOuTelY6W/4JXW3+HZGGtyN/r0uu5szvfZ+rbPpflOzr7j5dbxn3PuPdOxZghBYFMmTwD5CeLi49W50EsMxEeAMCUyAW0BzdsUGTgDHDt2rCZV4t/ZCLwPh0312muvVVOCa4OFTHAvmgMVktmyiZcQmagGtBVEO/g3PnoiEYgecAldTBJoIdBmeJux9jkmIR3zF59/oX4PTJDX51CEQJYsSlI6dOhwSq4F7/04KkISIDb+DSyaNWumWgeXoMesQWgnYZb+zfP7gJj4N/q3aNEide50kQTIGGNF0+HfIDUkvvrjjz8S/YbwQquDpsaVZRIyxVgxK/k35heSxf0uYkL0CY6fvN+/4bNBf8uWLZvoN8ZHFAkmLZcwgcThC+MKKQVXSCVk078xH8wLzrQukkDUDmP1vkPf+8GG7wGfFdcCx2T22WefOYUu/iqM1RXhwncLadU1FxeX6Nl895jHvDXnewGaPIg1eUL8G+uM9UYoMN+kf8MJmTXHM/wba451Tq4S/0Yf6St9dq05tHCQck8b6Hs/ewQYgZVL0OMnhF+Tb34T737mhP7iaOxac+RuwXnYtb/wLfBNBFpzEP+KFSs61xzfIN+ia82hAWVeMWEGe2Nf5tsONN8c/tjfXfPNoQxnddd8o40FAzTN/o35JnIMfzPXfBMZR/4Y13yTsI/+krPGNd/kySH83DXf69at03w7geabgxxh6v6NvYaDIb5krvnmUMlYOQT6N/Y4Dswchv0beyOHZyL3XHss2nnGivbdv7FPcfjm0OorTzKEIPDxYAYg/t+1WeEwiAaAE7l/49SOkCHawDXIJ598Uv0SXACRJAlBw0fh3xAkCFSe7d+YxOHDh6uJwiWESNI0e/YszaHg344fPyb33ddXQzT9P14mlE15+PBhkitX4sVPjYrmzVuo74V/Y3zkdCBFtGtjRvvB5otWxL+x0UyfPk0aN26S6DcW5+DBg9U/wrVQ+QBnzZopBQsmmGl829GjR6R379vVr8K/8dERyTF48BuSI0fORL+jVcEvA4Hi31jYb731ltx+e2/JkiVxnYwpUz6Vnj17OTcltEdffjlbLr+8nnOxYeJ64403nAv1mmuu0bHwDP+GIGHu8DHxb2wmRKXwbJfARSvGWNGa+TfICOsCsupPhlgrH300Tu699z7npsTGwndYtWq1RM89cSJCHn98gH7HLjKEPxDPzpMn8aZ06NBBadOmrUYU+Te+vQEDBugf15qDWLPxBFpzbLBsaP6NPoIDa9m15kiaxlgvvLCcc83df/8Duoe4BAbr4r33RjjXHM7TLVq0VM2la8298MIL6i/kIn4IeASRa81BqKdOnSLXXnudc83xfRPl5NK2cIiAKHkZXhM9IIj+YenSJdKsWXP1J/Nv7LHMCc7irvkmFBx/LNd8J4R3z5Ly5Ss45vu4+pNBYl3yhDnh2S6CtXfvHt1j8T3zb8wxc/LQQw855xvHd8h8oPnm0AKh9G8xMdEyZMg7Gt7umm8yCzPWYsWKJ7qXHD133XW3fPLJJ4l+Y7/gQPPOO0MkZ87EB7hNm/7RsbrKBLDHDho0SMP8fclQhhAEPgByEbD5ujarxo0bK3iuUyofHo6IgRYwzowwddcChnWx4bhObnw8fAyc/FwfL33F98HFFvl4EapoEvwbZIjf0Ji4CAJaAPrkOqVyqmbBBJpQnDc7d+7sZLecvsDQtTFDvF577TXNFZH4441RooQ5w/XxctpjPC6hiS8JpIWF498gCO3atVPB6RKaMHgWIn4g/o3r2QAgdy5tCU6hvNe1UDlVk3vCpRnytFGc+lxkiGRb5KpwbSy8C3wRgC6hiRDCvOUSmpw8mFcXQWAThTyzsfgTBL4ftFjk6HCd0NAcMDcVKiTeRFlzw4YNk08//dS55jglkUsk0JqjTyQSc22i5P5gY3KtObQ7rFfXmuNdvJN3u9YcET6Y8FxrjoRpjJXibv6N65lzTqMugYFmh/GAtX/DJ4j+4gTt39hEcYBmbl2knBMwvkQu4ciaIyKKb8q15iZOnKhh3a41x7fLWD0NZaIHBNE/cJjh20b76d+Yb9YM+7t/Y57Q+uAc7prvCy+8UDFwOWdzPfly0CK45hstAATWNd/4rdHfVatWJeoTa5eIOMi6a77RWBCV5ppv9gz2JLServlG0/ree+8FPHAyVpd2jHXP3s3BxF+esDdywGUfde2xmOn5zaUJ5HoOm+zRGUoQmEA2V09w0TH/woehoWE6mS5h4N0fG5tQayHxIs6u4LhU0QiBBCHisi+G6DsDFVniI0z4cBPfy6mWj9+lhmISEZzR0W47bFhYuL7X1V/IE/2Ni3PbyLNnz6FqM9e9bDS8N9BY6a9rQ6e/jDMyMrFpAqwZKx9/oLnhnTBkV0tqrHwT8fGJ1d8iIUqgXCpC3pPUWOmva4EnNdasWUN1XlMy1vDwbNpn19ygkWJeUzJWBH0COUj8HYaEZNH+Bhor90VFJTbDgKGtuYQvlv2F7zAlay6p/eV0a455Rcvjaqdbc0HEDbQrSWGQ0j2Wb5t1nJI9lm8b7F1rMan5xj8treUJ+05K5/vsyZMQHac/sUh3DQKLDzbHaQRV03333edkO8H24Vt/DAFDwBAwBAyB8wmBdCcInj0TJw1UsIFs0ufTJNhYDQFDwBAwBAyBYEPACEKwzYj1xxAwBAwBQ8AQCAIEjCAEwSRYFwwBQ8AQMAQMgWBDwAhCsM2I9ccQMAQMgX8RwEN+//59gqMuCdmCucy7b1/JU+HypLeJDT4EcIYnogrH9Ny582hCQs8x2whC8M2X9cgQMAQMAQ1j++KLLzQnCZEphFmThyQYG9EAhKVSg4ZIMHJYkJDKWvAjALEjtwdhuoTwEnbvkbsMIAiHNIsZTorEFFO4KJhZcfBPr/XQEDAEMiMCEASSV915511KEEie06hR4pwRwTB2CAKJikhVT1/nzZsrDRo0DIauWR+SQIDAgbZt2wmJBJHJb745+GQyu3QnCMTYk6yF0s6kkyU1cqCc9TazhoAhYAgEEwKBajS4YuxT2+9znSDUr3+FJshKnLMmRMLCwyRXTnfumNTillnv53sgTQB5XzjhB8qfc7rxe7lfyFeDpof8EEeOHA4eguDVI4BxYudwJXVJjwmmBoQzX1J6vNzeYQgYAmmGAInWzoaA9jpI8h8EHdkVyQzJ4YYMfLyT9MdkrkSdTnZHMiYGKrR1pgM+1wlCpUqVVaOw7q+/Thk69W/ICklGS9Kvu7KynilW58P1fIdkoqRuBwUJOe0HSuwXCA/kLply33nnHS1ESOZPkvgFjQYhoyeS/HORkVESERGpFRKtGQKGwDmMQIhIWGio5MiRTcLDEheLSs3I2JAp8IZqf8qUqUoQEjKFxpxMc+sdciAG+AdQHZZ6CyVLlhAycaamnesEgTL3pFWmcByFhzwiANnC7s0pmHTE99xzz0lBx5i9w2Mg0uelU+b3QNkReQ6/BapYy7xwDX98r+HZgZ6bknuS6qv3fXjXufrr9ZPvDh8BUoiTep5aL1522aRw857B39Seoa4QdSSojYGGxwjCvzMRHRMru/bA/kXCwhIX/knNgrZ7DQFDIH0RQBEYHR0joaFZpUjB/JI1a5ZUd4BNlFTYH3/8sda9oIBYoNLRvi9DsKARpXYCRZ2os5IaDWlmIQgUYkOgoS3IkjWLHDp4SOtdUDWWOjY4x1F3AMzRzlAroFjxYlLuwnKneNQjRPG2h7RBMKgsS40GL6U5v1NLg1onVJWkCibVM6kAiVaHOaSSKpt/3jy5Zdeu3UJ9Au8a7uXZEBeqMKLC556du3ZpxWG8+6mEyDOohMtz9x/YLxvWb1CCU6VKlZNqf/pCZVrGTl8rXFRB60hkz5ZQoXjP3r1y/NgxyZU7l8TFxul1zDfv5bl8S/x/yNT69evVtMBYqWVDPRaPIPBenk+/qWeDFotxQ8g88gSu4EFVYLRd1P1Ac2AEwW+rAPAjRyPkyLHjkj8v9QS8Ys+p3lPsAYaAIZBBCMTExMqhw0elUMF8kiN7tlT1gj2CUs8Uy6Hss6sQT3JeUOqCC6Rf374qFBEsKWn0BZJCOnqIxrRp05zF5FLy7LS+x6s0ShVNhNYXX3wu5cqVVw0CAo7oBgoFMQ6ELsWyKKiF0Fy+fLnWJqBYHpEQ/DcCHaJFgSsK6HEPWHAPhA1sqM2AmQItBIXyqKbJe/5YsULi/zVhI1Qhay1btZR9e/dpfzAPIYjXrlsrhw8dVqFJ2v9JkybL1q1b1CcOR/rXBr4mJyJOCNWFIS4NGzbUktIUokIIcw9F+CA0jItCSYNeHySFChbSUz59pwQ4fUXD1KZtG3nm6WeUAKA1oThVuXLldLwUqQNDinlRoIwKwRQkRJBTRZXxlyhRUiIijitJgSAwLgr5UTCKa9Aw0Pcrr7xS+1GpYiUlM88884z2h1osEDG+R0xl/xGEWKEMN06KfK++gQPp7qSY1h/mmTyPiTp48KhExkRL3jzu4h1n8jy71hAwBDIegbjYWDlw6KgUyJtHcuVKOKGlpLE/IDweeOABLafrqvB5Js9F/Uv5eQSjq0pmUs+iPwgATtqonimbTUnvYGz0FVMC9nGEO8KSPiOQOdEjeLwS5rt275JXX3lV/vjjD+nVq5cKJKoxIlApI9+wYQMlFStXrlThjeDnJI2g5pRco0YNxRMByumY8E+IAmXDuYff69WrJ8uWLRMq+HKyp9IjmgYEMCdpBDN/uIZn8xv30fg3no8zPSSladOmesKHFFBmHOFKpV00DTVrXqpaqx9//FHHPWXKFH0f42fcl156mZQoUVx/R6NAdVgIH3hQ0RFiccUVV6j5Zc6cOUoSBjwxQJ4Y8ISSCEwACHXeyzshI+AKQUALg0aBfpYtW1ZNXGhjILiUqucb/uijj5SM0ddq1aop4eWbgkx4BAFS8eWXX+p9XAPB8DRfRhCCcbVZnwwBQyDZCKQVQUCNi5Ci5HBCJdTUN05rlOelDH1KzA2ebZmeIBjOpjNmakfr31fMAZ4PAmP3HOogXggoBPLkTydLvrz5pEGDBnpK79//IenT5x4lG9jbOfW+/8EHcvTIERWsCLCpU6eqCn3o0KFaWh5igPCm5DgEipM5AnX1n6vl2qbXqnoeu3u79u2lfr16KqgRnETQQeAos01fPvv8cyUcV115pZIGyjHjyAdBQEX/4Ycfyo3NbpTBbwxWQQ95gHgwbsqzQyKGDx8uJImi7/Rl3LgP9eTPN4VmAOJC/xDwEAScW9FCgA8aCcrH33LLLTJo0CDVnCC033rrLenevbv8vfFvufmmm9WcwP1cD2mkz2hWmjVvruGlD/yrxZk8ebJqD9B6ULaaZ0KA7777biVdHkFAE+OZ0Pz9NtKdIPBxUHub2EuAgyGmlddvUh+4aRCSQsh+NwTOPQTSgiBwciMpEUIG4eBqnMIQPAgGshpyDxs4p1YESCCNA+rsqdOmSuVKlYNawKf1zKMKhyCgZkcAI9zBjBP8kiVLVMhjxuH027hJY9m/b7/kz59fT9MQCAgGDbMBQh2zD0IRQc2JH9U8IX8SIjJq5Cg9KV9//fUqeFHpQwwaNWqkmgYKAz7x5JNyRf36+u/Y8TlxI7Rx2OPEjQmHZ9JP/BGGDUMz0UwJApoL+szc836ELAQDIUxfmzVvJj8u/VE1IbT+/fvr3yVK4KyaVU/u/OG74TkkI+Lezp076/MQ0H369FHignnj2Weflfr16ytxQLOA5gOyxG8IdwgC/8b3CpktVLiw5MqZU79BsEJ7BV5EPSSMZZhGPdBXnBsxT/gShEBzn+4EAftNt27dTto7mPz0SpR0OoLAb67mz9i964KZyaf1Qk/r52V2DDP7+NL6e0jt89KCIBw+fEi6dOkqs2bNStQd1joOcdh6Oa0i2LzTMHldUP2iCuZEy+bs39jkCfd77bVXJXv2HKkd7jlzv0cQMBfgX3D/A/dLaNZQxQhB551sPWF78OBBNUNAqGieZz8naeYFgYeZYfz48aoyB3fuwRyA7wJC8+qrr5Zp06ZKvnz51VcA9T0EhUyBD/XvrwSBEzcEoU6dOnriR1XfpEkT1UxAECABLoKAmQDzAUKcEzlkBDU+QpeTPIIfgsB88z5MGIQj8q3E87+4eO0r2oC+ffuqOaJHjx4qvHkGGhK+I48g0Hca6n/+G4LB90eSQcaKTwTP517IRdGiRQQxBm6QEggQshac0GDwDUKoIET0M0gJwkFp0yZhkOld7jkQQeCjWLhwoezzWdxZQkIkf4ECcknFS6R06TI6ybt27pRvvv1GsmbJqjavXLlznzOL9Uw6Ck58SGy8jDtraOrCtXzfvXvnLlmyZLGEZ8umzJy/M1P7Z+NGtWFmCw+XG5o1OxmGlJnGGGxjSS1BYENl/bMxI3D8W61atVT4k9jNFXfOeoEoIHSwCXNC9m8lS5bUkx/C53xpvgTB10kRrLxwPTBH/U/EB2YFBOsjjzyimhkw94Tf2rVr1PSAKWHS5EmSP19+Fez4PODjUbt2HQ0x5bA5ctQoaXTVVXoIRUBC8Ebxb40aqYo/+QRhmO7zngYhOQQBfwg0IghfTA2QCSI1+DbQBOB8iHBHWAciCJ06dVKTAaQFcoW2AfLw55o/pXu37irweQamCIgJZAYzBO/85ZdfNM8BfgXcgyYDHNq1a6ekYO++vdKzR89TnBQxMQSRBiH4CAJ2mc6dOsrPy5crThpigs0vJERVRPfed5/07NlLGW/3bgmMcMHXX0vpMmUz5VqHHIwdM0ZWrPhDbu1+q9StV++08cRnAsI3ixbKrd27S4ECBWXBwoXqgJOZ2uRJn8hDDz4k+fPnk0XffCuFixTJTMMLyrGkliCglmUjfXfYMCXFvg2BRAphVNBJmUI5aBBChpDzN1NwqsTWjS/C+dICEYSo6CgVdDjXgSuqdjQACEJPxb9z504lWjVr1lSBhxmhfbv2qg1ATY8Knd9JVMXvmAU41SOIMS8glDf8/bcc2L9f/QNQ40fHxMjldesmmyCgXeDeMyEI7703Ulq0aK6qf8gLEQtEatBvzAhoofg+UPefjiDwzVGDA6GOPCIaAyIAgYWQQhAGDBigPjMQKTQqkA8IBddg/hgzZozMnz9ftRWYJ3gG5oj9+/fr/zcNgt9KDKRB2L9vn7Ru1VLZF3GkfJSA/Nvvv+sHBhOcMXOm7N2DaqyTZM8eLj8sXiJlL7xQ38Bz1f4YHy9h4eGJ7Iz8DhNm8wkNC0u00XCCiYmJ1g8oNGuYhIaFJnpGXFysREdF62k+Oc5O8fFxEhUVrSSHd/qaRHxV4LybvoeFhUqWLAl5IQilua37rTJ37hx5991hckvXrif77D2X58FST3lu3L+JpzSGN05iY2IVD9/29YKvpGOHDlK4cBFZvHSpLiBXo48k8PCe4SUQ0b575qB/E6X4/1ui33365cUX6zU+iVZ0jqJjdB7A1xcz3+eHZMmiccuxcbEnU4Tr/CmGYQlhaffeo7bUZct+lsKq9ovXuSdjWUhIFsXkdAlczhcBklbjTC1BYK1zElu8eHGiLqERwLnLS0iTVJ/ZfDmtcWrzb0RH8KzzJbU8pgRU4HjeQ8Dw3GdtsV4wOSC0Wf/jxo1TdTyCHjMCvgdch4qckzQ5B7hn6Y9L5fHHHldhS0PggSde92BKSB9CFae/E5EnNOcAv7362qtSvlx5NW1gokA44vtQvXp1NVeg3UC7gKofgoJjIt8E/47JAi0EPgj4qEA8IDNoOTjhk5GQvR3i9/PPP2tEBiGDhGJi50drwIELsxTfUu/evVXLgfYD0wFCGp8A9n78BSANLVu2VGIAIcDBFdLJ+NFgQX4IC4UMQRLwp0BrARlISD6VQ1q3aaU+DMWLFVcyBDH1HG/BEtMEpIxvnjwfp4uwyQAfhODTIHgEgfCVe+/rqyyPDRznlps6d1KQx4+foEB26tT5JEEoU7as7Nq1U6ZM/lR+/e1XzcxYvnw5tWWWr1BBheeOHdvl08mTZdXKVfphFilaRG1X1zRurJO5d88emTZ1qixZukTZHWE+TZs2kebNW0jOXLlUeC9fvkymT50qO3bulLx580nDBg2kdZs2auLw94XgQ9q8eZNMmjhR/vxzjYSGhknValX1I+c0u337Nhk7ZqwK36sbXS0LFiyQbdu2qsPorT16qApvxPDhMnbMaPUqZhHc1qOHtG7dVnbv2SWfTpokv//xh4RIiFx8ycXStWs3KV2mjBIpHIUiIiPkxhtuVG9avJPv7dv3FEJzCkFYskRzsn80bpyqFDHl9Ohxm8TGxctnn02XJYsX6wKAiLVu1Vpq1a4l3y76Rmb9e0pgw8UMxEnl3XeHSnRUlFSrVl1Wr1olWUOzapGbwkUK63j/+WejNGl6rZ4G2GB4Z6lSJeWOO+/URDufTZ+mscRsDGg32FjYTPLmy6emJzYC9Er16teXZT/9JBeWKyc33XSz/LNpk0z8eIJs2bxZihUvrtqlIW+/ralkIQj5CxaQH5culenTp8nWLVv090sqVpQuXbvpBmdEISmRm/TvqSUIbP6oksmU6NsQOggQHMmS29jo8RxHUPgnV+I5nAxJwJPcRnw84YCsc9TjgQh1cp93tq6DBNNXtI6QYBzsiOBgT2NPgmD5mmcwM3hOneCBdob/D8HavWePOtyhHUD97e1xPAe/gp27dqo9n9wHEHHfwwN7LEQArTDOjjzDq1lAH9nL+dt7J8Lby7vg+cJ513Aqp1/HIyI0r4JvP+k/v3n3eOPkHr4b712YA3ge8wYeHgb0E2IBEeIZXE8/wMD7N+aK5xIWykGJg6qX8Ck8PEzCwxPMs4yBMUMo2HfQyvp+YzyXfkAgwIzfuIf30F/6gXacZ7AnoY3xtGVGEETElyCQ6OOpZ55R8GCBN1x3nezbt1fef/8DyZ+/gG4WngaBieh7373q/UrjHiajUaOrZMg7/1MTxAP9+uqpEkGdPUd2OXzokHqcDhs+XJnqs888IyPfe08nynO8YVG88cZgufmWW+Trr7/Wd7CJ8btXqANHk7733y9hYaee0LGB9+rVU4WYp2ng42vVqqW8MfhNzRxGjC5j5mPh4yejFx9Jy1atZOCg16VXD9jwMv1YYazdb71VHnqov9zfr59qFViQ/OEeCMTbQ97R8bdo3kwFPSpAhHazZs1lPPYwHy2CL0GYM2+ejB//kQx56y0lO++88z9p3KSJvDFo4EnHHRYUi4lsZ++NHKn9v+3WW3Vsk6dMkWuuaSwzvvhcetx2my60V18bKI8/9qjahMe+/6Fc0aC+3HD99bJu7Vpp07atDB8+QsaMGa24N2/RQkaMeE8GDRwoo0aPUoIB9pASno9qbsCTT8nWLZvVpsnmxIbDJtarV2+5rUdP6XP3nbJixYr/FlRIiM4Ri/mnZcs1CxtmqY1/b5RixYrKwUOHJOJ4hDS6+moZ+/5YKVas+Nnas8+b56aWIBA2BmnnpOvb2EhJMMM3ntyGEMMG/sD99+te4Nuws+PUxmkyOY1165ksEDqc+iCuwdgYN2QKfwDWLHsiJMFa8CPAvoamB5MIWh7MFh7xyQCCgLdwF1XBoSYhC1ZGRzF4BAGNQdOm10rbdu1UGCB4cEzRjWLmLIk4fvykieHb776XP1evlt69e2n/X3zxJWWz2IU4rfbv/4jcdfdd0qF9wrOeefZZPWH2f+ghWYMzzgMPSN9+90urFs01fvblV1+VOrXryJRPP5WpU6dozC5hOXfdcacKZTaXu/vcI8uW/SSvvfqaCve5c+dK2XKYORIyQiLQhw0dKs8887RcfMklepIhE9iAAY8ru3xv5Cj99zatEwhC8+bN5f4HHpS5c+bIW2+9nfd50AAAIABJREFUKfny55f587+SmNgYeaR/f/XKHTDgCbnp5ptl6ZIl0q9fX2XCL7/8ipo6Bjz+uGofXnjhRWndtq2OBVIFi+3UubNiiRD2td16BCFPnnxy5523q3MNTPjV115TQoSDX8f27VTIDnjiSd1kBr72mixalOBE9vTTz0i79u3k7w0b5LHHH5cnn3pKHn/sMRn27rs6njffflvNIz/+uFR/79ipkzS++mq1CaPxmf3ll/LYo4/KnC+/lKeeflquu+56adOmtZyIiJAnn3xaGl7ZUBYs+EpJAyeQ6Z9/Iblz5pSrr26kp5ISJUtKh/Yd5NrrrtOkJIMGvqbzzvyHZwuXV15+WTGAIGCGmjLlU3nqySelRo2aMnDQINm9e5c88/TTat7AXtmgoZXETe0WmlqCQIgitmYS2/g2Tr14tqOKTW5DUKImJ77eP+zR88A/nVOY73sgCFbuObnI23UpRSCoyj0nqMyXq8DC25OwkaScf1I6cP/7kuODkCVrVvVA9/wGOLUjrAcOHKQmh44dOqoGYeGib2TUmNEyfOhQTYjRs1dvzQf/+Wefy88/L9eCLST4YKwrV6xQNdnmrVtk/LhxqnJC/f34E0+oMCTbF2FU9a+4Qm1lVapWVcEYGxenQpeTzS23dJGq1aqpyQIHQk7vnH47dOp0Er9jR4/KnXfdKZ9NmyZ16tSVNu3aqm18wvjx6rxy9919VHB36tRRBeKnU6bqSXbxDz9Iu7ZtVOjja1GtalU9pUNA8EFg/I89/ph8MHas2gO7db9VVW7Yy1Aptm/fQc0yHTt2UA3Ciy+9pCdsiJN/BIRHEDhdYbLhtI6G4s0335JcuXLL2LGjNUUtv91z772q7v96wQKZP3+eCt258+bLxI8/ljfeeF2aNG0qI0eNlp633aaREfx3y5YtNLb5xRdeUE3Jjc2ay0MPPqD4YqMc8d5I6f9Qgu3u44mfKDl77NFH5LLLamlBnkJFCsu2rVuVRHGyfOXVV6Vpk6bSpEljJXqDXn9D7Y04PPW56y41hfTo0VMGvf66qlFffPEFGfzGG6ppWLx4qcycPVPJFt84ccvVq9eQUheUkiuvukqdinLmzJVWn/d5+5zUEgTUrxBwbMi+jTULcX343/lLDsCohPk+cMDzD53mQMS3mVx/BiMIyUHcrkktAkFFEFI7mNTcnxRBQFDjpHhZLcKZwqRE8RIqtNnMOU0uIhTqX4Kw4OuF8vRTT6rXLEKwYIEC2jUvdhcBP/itt+TRhx+WuXPnqYDIly+vCiYEDQTh9cGDVXi/OXiwbN6yWYU5fcR08fiAJ6TptddKsxuuFzx6+TfPZMA7IC6PPT5AvWU9IYz5om3bNnraR+uBecC3Tx06dNQT9U03dVaHR07AF5Yvr4SmRbNmeqr9YsYMqV6t2ikEAe1At65dZMFXX6n6kBOz73ObNGkq/R/uLzd17qymhYWLFkm16jWcSWE8goAJwHMYxPnmk0mThVAwnGaeezbBxFOgYEF1sgQT/iB0EepHjx1T4gSh+HDcOOnWtauSkZmzZqm/AtqDNq1aSZkyZaVylcrqy3DX3Xer6uyWm2/WzRtfixmzZsm7Q4fKO0OGqCZhwscfS46cObU+Oo5CvyxfLn379dNIDvxCMHVMmz5drmncRE1FnTt1ku+//07NGn3uuUf7PO7DD5TgoEXBxBAZeUK9ltHGHDl8WL8P1MW1ateWUaPHaKIwa6lDILUEITIqSr+hKVOn/ucA+2+XWMeo9vFETyr3CXPLHkKsOkTZj21oON9DDz6Y5HO8+4wgpO67sLuTh4ARhH9xSoog4KTYt28/eeKppyQcD/0sWVSwe04wvgQBDQK2bAQMAm7QG4NV84DwR5DgPHfo4AHpcsstSi6w7WNHf/mVl2TG51+oeeWFF1+UH5f+JHv27pbsOXKoc90Xn38hq1atlFq1asu7w4dJ967dZNOmf+TdYcPVeQT1/4F9+zUMkxMoRWH+q9p1VO6+8y5NFILzICdwqlbuP3BQoiJPyAUXlFaBhaoTMrL0x59UoAYiCHjgokFo36GDmhPGjh0jkIHnXnhBsmbJog59J05ESNGixdSuSiQIHsg//rRcylco7/w6PYJA4pCbb75FE6AcOnhQBfHTzzyjhAkBi6birSFDpGCBgnLk6BE5euSokpN69eup2aRTxw5qjkCQ84xWbVrL6FFjFEc0APQFzQuntfr1r5B77rtXNQ00nHXwL8CE88knk1TDUL1GDZk6dZoULVZMnTPbtm6l2fFef/0N9XBGg4DZ4/MvZqhZAC1Q75491Ebd/bbb1GckZ84c8ujDj8jw4cMSMqYt/VG1Fjhv4euBjwOmks8/+0zVz/iEQFx8BQ+ObaSVZX7RovD9oRlC+ECCcOo8cuSoRkVAAjNbHonkbWmnXpVaggDmeNKT+x7i6tsgczj44k0OQQ1EEthbMFHwDGoneAcF71mQdbzgCetLbjOCkFyk/rsO3JlDNKzsFxykrJ0eASMIySQIeAvjpPjMc885Q5F8CQI+CGvWrpHePXuqEHp8wAApVKiwvP/+WFm1cqV6uFeuWkUeeuAB9c5/+50hsnPHTnnyiSc08uH2O+6Q+/r2ldYtW6qweOrpZ+Siiy+WL2fNkv/97x21WU+YOFE1ENSjx6Hxttt6yF8b1svY0aMlW/bsMm7cRyrYvE2L54wYPkxt3oTjPNT/Yd2oRo18T4Xes889LzVq1pB2bRNMD4EJQnWNJpg9a5Y6rWA+WbV6lfS77z71xB3wxBMagUGkA4U/8I3AbNGmdetkEwSiNeYvWCAj3xuh/gMIVLQDhGZ27tRBHbyYi9p168gnH09UnxXylqMxQHPw8ksvyuuvD1LNAkISp8/OnW9SMgdBQ3iT85zW/+GHFbtWLVsoDgjaCRM+lutvvEFWr1qtWheiMBDWkIlvFi1S8oefx9Rp05X44YPgSxDYgN54fZC89OKL2nfeAUki7GrD+vVqDvnm2+/k9UEDVWPRoEFDzeRGRMSjjz6ixAHycfc995widLZs2Sz39rlHx4/fCkTp0UcekW3bt8kDDzwoVzRoIP363qck6OFHHpEWLVud9/tfagkCAGK6I60ue4B/Y3136dpViSskH8HjHRogF3xvaA7QUJEMyd+0wPpk/ZIC2NO+JWfSjCAkB6VTyQG1DMhGyPriIESGQWtGEJL1DQTSIBzYt0+9/JMiCN8sXCio6b0oBgQDmzULH0GM/wJ1wytWrKxe8Tly5pBWLVqoiSB33rxCpXo9IR49Kh06dpQhQ96R++/vJ9OnTdOTImzXC59BmGBCWL5smfTscZueQjnNaK6E0FC588675YUXX9ATs9cY345t26R7924atuLb6tS5XN7/4H05ePCA2ubdBEHkixkzNQUpjnxoR+gXYY4IKwgCJhUdK/kA4uKkatXqqlkgCoEohuRqEMiD8MOSJXqqxt5PiBmaCnwR8O4f/PrrGuLDWBHMqHiHDR+hfgdsuL/9+qsKfCIKIEPz5s+X4iVK6pA9UsQY8BUgDrhdu/ZKYH744Xv1R5g5a7YSMt5PSNr/3hmi8wLGEC1O548++pg82L+/bPpno0Yx+BIE3gMRQDX9xx+/a5/4A0lAs8K3sfTHZbJm7Z+qucD04hVFiYg4oRoWVNeVq5yaWe+vdevkmqsbJYTWfjxRLq1ZU8eJNuOtt4dozvemjRurdgStUs9evZL17Wfmi9KCILCuiD0nvt1fwIMdc8ucQiZbtWqtNRk8kwJOxfPmzQ9YwwE/E64hUuJMwlrpB1EPxLvzXfLfxLAHYwML8hgQ3w+Bwj+JsMz0bDgiE2WG7xTaN3Ajx4C1pAjCIU3/7EUx+JY/SPcohoycrEAEIZI0qbNmyZ69ezVJUt3L655MGuTbX1jp3DlfqtBEmOXJk1edLRd9vVB++fUXVeOXK19e7dnkQcCRb+HCrxV4khDVrl1LipcoIb/9+puexDXccP9+zXYFOYk8ESEFCxXStKEk6MBMwUmVuP2v5s2TzVu2SN68ubWEaOPGTTTqwL+xUCEkX82bL6tWr1QTQ6WKlTXtL6fa/fv36VjZEEn6lCdvXtmze7fMmjlT4uLjVWVfpGhR9cSfP3eu7Nu/T2pUryE3Nmsm+w8ckIULFshvv/+meRQuqnCxnsLRkBw/dlRV/UePHpPON90UMJSLeutz58yVbNnCpUPHTrqZcGInDBGSASb8GxqDn378UfElz8I111wtNS+97KRmB9w6d+woixf/oJkuX3r5lf+cv+LjNbpizpy5utmzMWOK+fabRbJu3V9SuFAhadGy5UlydezYUfn2m281NJSQ1iJFikqdunW1mlqu3Lnk0KHDMn3aVImLi9dICeYwgYjEquCeOWOm1pG/sOyFUqNmTdWqMAb8PRAIP/30o3z37Xd6TY7sOdSsw4nykksqar4G34a5hZwJzDvfUeHChWTWzNly6PAhuarRVVK2TFn5/PPPlIRcffU1UrlKlYxcUkHx7rQgCAwE7RIZ7sgN4p/DwBsoa1/Tj2dNmDfIJH/8TQq+wCDcb731Vo0qwvclKV8G33shlhs2rNdIJRy6z0QDkZ6TwzpL6OsG/ebpK6bV9GqsF+aP/Ys+kDCJhEX4lDGX7COEih+POC4XlLpAipcoromUmAsOIpAL5olDGocccMaPyGto9Ihi4nr+nW8gLj5OC0zxbrSSjJd3sTepWfH4cXVgJxsvz/V9FxgREcbf3vs5YLI3nQmJTAt86T9prjE1FC9eQpNWZVgeBAYEiHxQXjx9WgwyOc8IRBCSc+/prtGIBzYJ1N3hZBdEV5DQEn6L0f8mW6FKbL/GNZxkuZ/a4uRMSJwAiUx80Uo0OFUntcl42RkT3ntqn5I7XvrFc7zTcYJTIVkDY7T4SEqfm5z3826+EzQy+p5/S93qRrRzp3z37TcaUspinPjJJLn+hhuSxCSpOfTelzVrqArupDD2nudhHca8Zflv7n2/AZ7NQtQMlKGhqm2yljYIpBVB4NtCk4XPAf5ILk1CSnvMXkfufMK6IQnpLQRS2u9z5T7mjegRosZYj5gH8fMiOyGZFclqCJlnTtEuQNioVYBjNJoPrkNLiQmJA9uIESM09NWbJ5yMuYd1TApmCD6EoXXr1vpcsiSSAwJz8PPPJ7yLfqCJ5HTO77yL7JEQRZzOqf+BxpH3P/XUU1KiZAmZPWu2Hh6DpaW7BgEmxoRxGifVJae05KQOTgvAzhZBSIu+2TOShwBC9pNPJqpvB8z7qqsaafQBmhdr5ycCaUUQQA8BgB0b9TR+BWlJEtjnSLpESl9OtskloOfnrJ7ZqNF4kr6ZvBXsC1Q/RKA3aNBA81hQt4EqkWgGmFfMhUQXvfrqq+qzgNOyl8UQUyBCm0MHUVQ0tCNodQmLpvok5ijICBk4mcfPP/9cNQJoGJFtEA0EPen7eRfFmYjQomgUGWBxeKVMOARh9OjRSiDQNmAaDqZsmelOEPDyx06EChl1Ht7BGZ0o6cw+Rbs6IxFAGJAsikxthQsV1pTTJH+yE1lGzkrGvjstCYJHElasXKlJr8iXj2/KmTTUzwgFV0N1y8kUh8YaPg7GZ/J8uzYxApzWCS0FW9T7OAaTdRKfEuoU4FfFQaJA/vya7pq8LfgiIYc4sEIQIIcIasJUObz6mnOYT7Q/EIpLL71U78GHCGHPIZdsuWgpIAA4U388caIUKlhQo2PIeovwJ5U7dRyMIJzmC8bOEWzlnm3BnVsI4NtBEik2WzuFnVtzdzZ6m9YEgT6iOSAclg2dQjecHDmZejk5fMfBNwhBxQaNYEHAICiw6wbSQBDuyDXkwbBvOG2+ChJegSu+CIQfE36OsOb/QxRwvmPPWLFyhdxw/Q06v2iLyAcDMSAUFSHO6d+/eeYntAjMNRFSzB/lnMlvQT4anDJxHkb7BJFAY8Q34BV/4l08n99NgxBgzjOaIBw6fEwiIiMlX97EhY7S5jO1pxgChkB6InCSIOTLI7lypm3cOyYtitisWrVKqz2SewMhgO+LF9lARAMJlRAQ5CbBxk1WRlTY/O1yYEQYUQAMf4f0MrGm55xkxLv8CUKtWrWUIKBReOyxx/SED0FYuWqlEgS02Qhs1PoQBEwC1FUJVIIeQtGpUyetj4PPAFqDPXv2ypdfzpJKlSorIcHUQeVKtA3MKw7mnr8CSdUWL16iGgTMCLwLLQXp5tFo4ANhJoYM1SCInDgRKfsOHpZcObJL1tDEDmUZ8WHbOw0BQyCFCMSLREXHCNkQixQqIOE4Ap+Fpo7E0dEnK+55Qh+B43m/+wp61NVr1q7VzIkIFIiG1/Box46NzTwpT391nI2N1Vt5fjCb0jK6r/4EAT8EHBVR91MBl7/z5smjBbAQ0kR1QfqIvsLE4Alt3+gF30+JOSckGidDHA7xa4AUkgALZ0TmlIJV/NvETz5RcwYh8DxbE6ctWaJ5MriO63GGhBTgn4DJlEqKGUEQ1JE+JuZk4IDvd5wBPggZZ2JgsokUOHDoiBw/fiJNHZDOwp5kjzQEDIFkIKDq/Ty5JHeuHEGlrmfjJbSO7Ir4MiBg2Hy9InWBBJE3ZO4n/BkBBhEhbA8hEoyNvuL8R/ZV+krEBjb+9Gz+BAFzAH3CkZCIA0LY0RJgUsCvBB84amMQWZAcgsBY0Ah5GgF8TUiMhoBnzNTqwQcC7RL+JWgivHf16tVLox8o/te2bTsNNyd/C0m4yMAJ+SS8MCMIArl38Kcg8gItCGHhkF7aeUcQlCTExUtMbKzExcal5/dr7zIEDIG0RiBEJKuG/mYJKnLgK+TZeAnJhSR06NBB1c+E4SXle4DQxZseggGxIP8FUTvB2CA/48Z9KP36UYI+TJ34OMGnZyPXgVcHA98AnBQjoyJlwvgJGkHAiR9McYpv3769JnUimoRTPyp+yANOi6fT6mCWwCwEaYMAffXVVyf9SHBkxOwAaSCSgXdpsb927dQHAkIAMcG0RCQL/40vAkKZ96JNgGCld5gjY8J0Qr4eSBP9z7Byz9hxUO/AlG6++Wa111i+7PRcRvYuQ8AQSE8EEBScbnFsQ4Chbk5O4z4r95wcpBKugaRweudvbPuc8Gmoz0l+9PfGv+X4seOqhaGias4cOZWkkSr78JEjGtLIqT+QGYf5IKESpiGEPNF4Y8eOPSUKj3cx1/ipkA2VisUIfkwKHiEk1J/+cB3fAn3lWt57uvcnH4kzuzKoajF4Wa28cr+AE8x2tTOD2q42BAwBQ8CNgJeiPLn4GEFILlLJu86LKElKc+N6Gvfu2LFDnRkXLPhKjh+P0PwFaBNcz0vOu7gmJX1J3miTf1VQEYTkd9uuNAQMAUPg/EXACELwzD1zQagria6w2d9w4w3y1ptvJVsbFDwjSdwTIwjBPDvWN0PAEDAEHAgYQQiuzwJiQJ0V6rMUK1pMi68FgwYgtSgZQUgtgna/IWAIGALpjIARhHQGPBmvS47pIBmPCapLjCAE1XRYZwwBQ8AQSBoBhBGli8nURxQDaelJ8xuMjb7i2U/SH6IYiBogq6S14EeAaAoSPxHCiRMtYZte4EC6hzkGP1zWQ0PAEDAEggMBnLnxsqeRodGLTw+O3p3ai3Opr8GIX0b1CedZ0ogTgUHkByGOnukk3QkCTJMPiWgGWDEdygx2nIyaXHuvIWAIGAKGgCFwNhBId4IAUxk6dKjmqCbTVceOHU/Gq5KNKlDIIyzHSznqDwQE43SFe7jPlQ+d5/A+7nU1yAz3Biq4ktS9vulV/Z9/ro01pf1l3Cm9N6PmNaX9ZayQ3kCE93TfYVJj9VKhur7TpL7D033DKR1rUv1NaqyB6g/Ymvtvhk83N2dDGNgzDYFEsvXw4cPxFA5Jr+brEEGBE2p1h4WFSlhYuKawrFq1aqKusGlQO5usVTEx0Yl+z5Mnr2YoIyuVf2NjJUNUQm33xJkTK1S4SPtAykv/htcq1dy2bt2S6LcsWbJqzm2yhbkIBqVHya8dGXki0b2MlbrhFHnxbxAZ+vrtt9+ckr/du65QocKaBcy3FKn3G+k6wQisROL9Hh2ihWRIo+klEPG9ADsU/d21a2eiPmXNGioNGzaUunXrOgkcSUGonhYVFZno3vDwbNKmTRtniliECMVvyIceG/tfrnrvIcWLl9B5JcmIfyNrGVnH8Cr2HyvCq3r1GhqS5FLJknaVuvEHDuxP9NzQ0DCtCIet1yXoeR8Z8aKjE5fzzZYtu/aX0q7+jbEyThKExcUl5Nb3baVLl1H7nytpGBo3MtP9/feGRPeFhGQRitI0atTIWfSHhCyM9ejRI86xemvOf6ysOQoUkS/eteZy586jY3Ul/WHNkRnul19+ca658uUrSMuWLQOuORIKbdmy2bnmLr/8cmnQoIFzzZG9jrEGWnPNmjULWKmPNLmLFi1yjrVAgYI6VldqZNYctRZWrPjDcZAI0feR6te15jgs0d+dO3c41xzjZM0FOsAkusn+wRBIYwTSXYPgVXNEaLMpeScJhAC5qsmu6L9ZITRJnUmSCs8ed+rmWlpmzPhCqlRJTC64/sknn9RnuzQQrVq1kg8++EBLffo3+tquXXut+OXfEDzU+aZKmGvxU9oTwUjmLf+GLZH8361bt3YKkvfee0+fDUHxb5UqVdKxli2bOCc7Gw5ZKqlB7q8xAVNyuQ8fPkxy5cqd6Lm7du3S/kBO/Bvk6fnnn5d+/foKAtS/UYCEeYNk+DdwnTx5kjRtem2i39hc3377bX02At+/kYKUsRYunJj48a677rpL6777N07U5D7HuctFLhC0rVq11rhm/4aAxsHq9ttvd27MEEaeTeYz/5Y3b16ZOXOG1K+fOMUs5OmVV17VZzNu/4Y2bcqUTyVfvvyJfjty5LB0736rzJ49O9FvCI/77rtPXnzxRSe5QHAxVtLM+jewQZvXtWvXRGvOS/PLs/mu/BvFapgbiJh/47t9+umn9dmuNQc5JkMgxN6/seY6dkxI++rfWHOkrH3iiQEC8fRvS5cukZYtWwVcc2S9I+2tf6OPJL3h2a41d/HFF+tYITb+DWxI2cuzXVpKUtiyngmJ82979+7RucE5zL+xpzz77LO6noPZ7yBRx+0fMhUC6U4QEJjkFvcXugjNV155RYWU6zQD06aKlmuzKl26tIwZM8Z5ImfBk1sagezarCiuMXjwYOcCpq/kpqbghmsB4+3Zp08fJ0HgZExRloMHDya6F6HJOznNuzYr8q9TT9xFhjiRMFbSd/o3rkfYUnjDRRA4oZIH3iU0SfvZu3dvLQ7j3xCapMTu2bOn85TKaRFB4iJD5DV/9913NS+6f+OkycaM5zOnZP9GqVZ+d5VfRUCT355Kav4NgkCxGDxzvZzivtdQH56xrl+/PtG9XA+h5H7XyQ2tBYKElOH+Da0OgoITvX+DAIEDOdhdBIHT4ogRIwSS4d8gQwgKtEP+DYLNvCCkXFow6tEzVhdBYM1BLBCarjUHGULQu8gQBIHvEK2Uf2MuIWfvv/++Uwt27bXXKjF0CU2+IardoW3xbwhK9g7WnYuUo7GAvAVac5AzTvOuNUeFP9aGa82RQ5+xkjbXteZeeuklrRDoIgjsZ6xlsPZv1A6AiAYi5Q8++KD+buWgE0Fn/5BOCKQ7QUBIs1lFRJx6KkFViroyUKEMCkrs3r3L6Q+AChyB6dogWbQIP04mrsZpmsIpLmFAX1FbnjiR4EV8agvRohoIL5cqGiKTULAjsVmDsfJOl9aCkxsbHKcLl+8D5glU2K4NkrGiUj58+JBzrKiFea/LzwNhjVnEZSYQCdFSqKhYXWNFgJGGNNBYESauDZLxkTudjTKxSUQElT1jdW2QjHXnzp1O1TmDz5s3n35PrrEirJkbl5mA8aGxQNi7xgox4L2Bxkp/XQSMsTJOxusaa44cObWEbKDvEHyPH0+stWCs+fMX0PlxjRWCzFhdJhzGV7RosRSvOcbqMokwN3v37pWDBw84v8OcOXNJiRIlAo7VtT8kPCjzrTnmxmUSYazsLewx54oTN+vKI/oQbSM26STFU/ka9iaIMfIOEo4czbAohlSOxW43BAwBQ8AQCDIEEDILFiyQUaNGKTFAe+fSLgVZt607IqohHDhwoKxYsUI1bD169Dh52E53DYI3I4EiA7zfT8eaz9a9STH1073X+pswczY3/+05Kf0mzrXvUM/2ISEBN9uUrpukvqeUvjMY+5uasQaDlENrhEkJ8w8EYd68udKgQcNg6Jr1IQkEgi6TIups7IV//bXOKVAuuKC0es27nHNQYeFtvGfP7kTDJrKgWrVq+selbkU1jPOTS7WM8x3vxJ/Bv7HBEZb522+/Ov0YcCxr3Lix06bKWPFcx9PfFVlQrlw5wTPbNVbMFAsXLnR62zNWPO1xWnSNFXMBfh4uD3TMFHi9o+b1byx0vNdhky5ve6IoGKtLtYxtfcmSJbJ586ZEz2Uzv+iii7X2uUv1iO2ZseKQ598wIXEfzmIuofDPP/+on4hrrDiz0V9XhAsqNXwuVq9e7TQZFCtWXENxXeYc1Kngu337NsdYs+i8MD8ukwFmBjzfXaYrxkp0DHXqXd/hhg0bNPLDZTJAdc9YXd72fIfYutetY80lNnux5vCDcI2VNce6wcTn3/j2qlZNWHOusWLyYl4DrTneWaZMGedYiRihz66xYkJirC4zHWMFI7ByrTnK/YKxa82haqW/+/dj9jq1seZq1qypJ2PXmsNc8P333zl9TFhzV111lZqRXGuOb5Bv0bXmChYspGN1+dMEi/QzghAsM3Hm/Qg6guBFFowcOdIpcPH+R1XlWvzY5wk5cjkxsbnh/Y9DnWuj++677wSvYvwZ/BsOU0QzEPLo39hw6CvOay4vZ0IzcehykQvsxg8++JBGYbhOUl26dNHa4i4bPXZnHAtdjoPYiV544QV12nIJXFK0du/e3elMhyPcpElNkjmOAAAgAElEQVSTNJzPv3mRBTheuSILIDOMFduof8MXAQczHEpdggRnuYEDXxPs7f4Nh0HGmrCpn9rYGHEwwxnPtTETnokzqcuZjn4SNke4mH9D8OFA9uabbzo3dTZlnM9cfjEQmttuu01DLf0b84HTJl7oLiL1+++/61ghrP4N/wWcGYk4cUXz4MCKw2IgZ13GWqVKlUTPhYw89dTT6gjpctYl7BAHy0DRPJ06dRbWj39DyD766KP6x7XmWKeE5QZaczj/BYrmYQ/AETVQNM9nn00PGM3DHoBjsmvNge277w4NGM2D02Ygx0HmlLl1kYuvvpovXbp0DbjmPv74Y2natKlzzbEH4DDqctaFHLPmXCT3zMXB2bnDCMLZwTU9nhqUBAHvaDYAVzIhNk82skAEoXPnzkIYoX9DaBJ2iPeva7PixEc4HnHw/g0hgMc8IVgugkBfA0VRkHOccDs3QUgIg4IguCILIAh48QciCCSSIkbbJTSfe+45FcgugkDoIbYk18bMCRNBw+nYv0EQ2KyIKHFtzJy8pkyZEpAgoGLkd//G6RKCwHNdJyEIAuSNE65/Axvy0DMeF0Fg84QouaIocN6DsNSpU8dJELC9gb+LDJFHYfz48QEJAh7z5ERwCU1w4Bt3EQQIH/PKidO/8c0PGTJE+MZdBAEhg/BzhZTiZQ/2boJwQgkL68q15gj3DUTK+YZYN0SruNYc3zd/XGsOjRJjSXDOPLVBVHkn5MS/QWIgD5ByFxlijIzVFVnA9RAWCEKgcN9ApJxwX75DV+ghc8kewLfmIgjY4G+99VZnFAVOr+wBfFOuNUdIKKTcteYgt4TAusJ900OAJOcdRhCSg1JwXhNUBAFGz2nmr7/WC4uRJEn+jYWAitYl+BBgqL9dnvpEB7BhoLJ0CRKIAUmEXCpLVLuoDhEo/o0+s5kTP+8KZUK1W6NGDacwYKND6DFWl7oTT3tCF13qWU4TCJNjxxLnF2B85cqV1+gNl9odj3nUloHGikrYpYpmfFu2bBHU9i5VNLHrECKXMEDwoBZ2mX/wysakQciYa6xs6ozVpXZHtVuhQgVVz7rGihobE5BLPYvpiP66tACMlXEyXtdYiQ5AO+QSBowVfF2qaPpYqtQFaiZwfYdEQvANuyJGGCsJtIg2cTW0SuRvcI2VqA/G6gof5DvEzIVJxHWqxnTE9x9ozbFuXJFArDnWG+vONVY0fozV/R1mlUqVKjtPxslZc4zVRTYZKxglaGj8E4aJRm6AsWusrDn660osxVgxCXIQSMma41tyad4Y6+bNm1O05oJF5BhBCJaZOPN+BBVBQBBwakBoYpND/egSNmc+TLvDEDAEDAFDICMQgCBgou3bt68S6i+/nC1XXNEgI7pi7zxDBNAQYrbHzwhT7RtvvH7SDJzuUQxedkLsmWTCw7YczM43Z4i1XW4IGAKGwHmHAFoQHIUxtaKZwfTpcrQ974A5BwaMTyDmdbRuJLTDxO8d2jOEILRp01YdniAIgwe/4XRaOwdwtS4aAoaAIWAI/IsAZjcvSygCxmpInBufBuQOHyy0QMwZGqAMS5Tk1WIwgnBufDzWS0PAEDAEDIHzEwHTIJyf826jNgQMgXMAAU7kCc6sIZrdztIXnwOTlom6aAQhE02mDcUQMAQyDwKoftG0kp8CYkB4q6Uvzjzzey6MxAjCuTBL1kdDwBA47xCAIJA7AV8tbMOzZ8+SRo0S5y4574AJggETShsVHSUx0TFqu2eusNtD5ELDQiU8LPycKbJ1OjjTnSCQ7Y7IBeKqKbVMYhFXFcYg+AasC4aAIWAIZBgCCQRhnNx5510qeIwgZMxURMdEy4mIE1qxFrlFzhXyp1AlmIRlJLeCJODcRyZUcq6Qs4XcLeS+IM8N/0airaTqrGTMCAO/Nd0JgldakkQvJLHxLS0ZbOBYfwwBQ8AQyCgEzjWCQCK6XbtIThWiybNcZc8zCsszfS8Cn8MsycVIFz579mxZvny5ZsmMiop2Jio79R0hmgQQUkBiLdK2k60UExFJ0HwjBc60b2l9PdoQavdQFoDkcMWKFTuZ9CzdCUJaD86eZwgYAoZAZkTgXCIICFRyIJCKmhBHkiZRQ+Jca2COVgBSQG4AUvrv3btX05MnVan2dGMlyyiHYbQKJAekrkypUqWcWVrTGzNS1Pfp00fH2q1bN01v7uUmMoKQ3rNh7zMEDAFDIBkInGsE4Vwv94zGAKdQxkFdDeqHpIYUBJpitAcQhVtuuUVrnJBQKiOjU4Iq1XIy1oVdYggYAobAeY+A56ToFWSbOXNG0Dopnsu1GFCxU2uHImlEjGBGSI+G4yn+CRSMo3CeqzhhevTDCMJpUFZv1Kiof0vgJi7skh4TZO8wBAyBtEAgwYscFbercFRavCE9nwFBoBomkQwIE+ocIFCCsZ2rBAHTwdy5c+X555/XqrleJsjkYMw3xrx4GSOZL+QJf5KrecBpkUqflCCn2ir2//R2ZDSC4DfbTB4FKqjaRlnXP//8U1ljcic1OR+PXWMIGALpiwAbNtUSqVRKeW9KQlMqPL033LQcNQLMK0WODTtY0xefawTBkwGUgqfMNlEJp2t8Q+CPAMckQFXPCy+8UP8/1VOzZM0qUZGRgqMm2oiNGzeqgyN/U73VVWLd932Q2qZNm8oLL7wgl156abqaHIKKIHjeoZR/DQ/Pps4Q6bmAYXfr16+X5557TmbOnKkOKdYMAUMg8yDAfkJYWefOnWXAgAEBy79nnhFn/EjONYKA0B48eLC8+uqrJwlYIBQhmXXr1pU77rhDGjVqpN8WERqnI2uUDcengdDICRMmyCeffKIlvZE/p2uQ2hEjRkiDBg3SjQwGFUFAILNoObnjzXnfffdpKEh6NJj4nDlz5IknntBY1qQmKz36ZO8wBAyBs4MA5oZatWrJ/9s7E3CdqvaNP6YiUoRIpWSq/qW5jKGEMqeMUalI8yAZGr4MFYqM0UhKKmNlijQPKkpFiiJDJJQ0SPhfv8e3fa999nucYU/vOc+6LhfOed+917r32mvd6xnu56GHHtLS8lEGggUzwvhcFYKAK+S2227TyPzp06fLeeedF58OJvQEa3H//v11I07vgFimTBlp0aKFEs2qVauqpSCzc8gphLRhwwYNgHzqqae06iXaCV4Ncksq5MiRI7WyYmbvlxXAsaYTLPnOO+/INddco+9LZFkMURVr4kEBQLt27WT9+vVZwdG+YwgYAimIAGI1EydOVNdDmNbKFIQqy11mff32229188PVc9FFF6n5PW6NU/2YMWPU35+MHLA5VqtWTXr26ik1qtfYt1lmdyyQKFImCYSkD2vWrPE8pDokgVRRXGVBz1msHW+++aZaO6pUqSLnnHPOPmISeppjVAQB39CVV14pM2bMyO5ztu8bAoZACiGAKbhTp04ydOjQyCLFUwiuLHcVkuDEcbGpBb2xZbajbNAvvfSS3HDDDZrC6NUIGLzzzjvluuuukyOOOCKQYFcs2cuXL9faGvPmzfOMfQO7hg0bKplAWCno5jw793PLFQSBifHKK6+o+QTfk7s5Gtpxm9BBTwq7viGQkxBgkUsWhV6sWDHdHC688MKcNGQbSwYRYA9YtGiRHhK//vprzz0A9cf7/3O/XNbqMg1uDbIxV1euXKnm/BdeeEH++uuvNLcjcJH+Dhw4UOMeomi5giBgQuEEMWnSpDQYE2xC4AlSmFYTIoopaPc0BPxBAPMxMUYLFy4U3vnEBvm/6667ZMCAAYGcCv0ZQdqrcKDZsmWzyheXKlXKN3N3UP2N63U3b96s6oUEpntlqyFcNHr0aKlTp06o6ob0C3cHsQlecQlFixaV8ePHS+PGjUMLWtzvvdm2bdueMAUaonAxbNy4US6++GJlkO5GkCQ5sDwIa4aAIZC6CLDwE4CGsNCUKVPSDAQtfKLJU6VGAOPBJUrGFYF/BK4RTW8tcwhgVUId8dZbb/U8qRMrMWrUKK2VAM5hNp4xcQnIGyPt7CYvEFtiaJCxJj4g7BaBBeE3adWqlUZ04udBRcqJmAxq8OS4UjmSIJrERvbEK6+8LJdc0jioW9t1DQFDIEQEWGDx23br1i1N+hqZDK+++mpk5trMwpBKUsuZHVuYn2fdR4gIISR3w5WAmR/3c1jZdF5jX7FyhXTt0lXeeuutNIGLxNCQeXfPPfeETmBCJwiYUWBDq1ev1mIe+ASDZm3ff79SGjRoqPoHiY2TBCYn3AvWDAFDIGcgQKwBLkW3yZbc8tdff12V61KhGUHI/lMi9gC3ElYYd1p7nIJXnSyQSy65RGMT3K1ixYoa0EhlyDBj5UInCI4cJQ+OdJgw8jyNIGT/RbMrGAKpgoARhPCfFOs6yoHo27CuU1ugZMmS4XfEdceff/5ZswEWL16cpi9oGxC8TvxBmJtuMlBwhQwZMkRjEtzklkM0MTRYEfyOlSOr4r333hOwAovTTz89ujTHKGaMEYQoULd7GgLRIGAEIXzcOfBNmIBQ0u1aC2Pq1KmRCyUhb0xgOgqI7iwB+jho8CC58YYbYxW0+vOmn6VN6zayYMECTysCdSOQefazIZSEPtDbb7+trhbUJSMTSvJzYBm9lhGEjCJlnzMEUh8BIwjhP8M4Si1v27ZNAw+Jd3MH/+HeJh4FtcQ4NXDEBY+LzJ2JA6mB8DRr1sxXi0espJajeBhGEKJA3e5pCESDQE4iCOTIk2mFK5bMDAIt49jiSBA++fQTufCCCwWikNgw11OHgWyXoOPfsvKsUFgkqJ4igokNNwiB/Y8OeVQOKXRIVi7t+R0jCBak6NtksgsZAnFHICcRBBT3iGzHr08AW9myZWMJf9wIAhYDpIoxmdO3xHbUUUepXsYpp5wSSyyJCaDCJKZ+dxVI6jTMnz/fV8uHEQQjCJG+CEzyvT7APf/rR548UiB/AQ24CSJAiAWCQB/uTfpSVCcFAo/oCydAFnlrwSOQUwgCSDF3nA2O+RPEu+LHE4kbQeDdR8oYfQN3I3MOa0yY+j+ZwZhnvnTpUg30REgpsdHnadOmSb169TJzyXQ/GyuCwIKJ1CWdKlPmKI2aDLrGubkYfJtLWbrQF198oWz4jz//3Pf9/PnyqcY4LwHmNKRw/Wx//vWnDHl0iHzyySfSpWsXadigoS+LKyVbMQEWK15MKleqnO7c/fW332TokCEq/4uZOG7+Tj/xjtO1chJBiBOu6fUlbgQBwSx89RToS2wcFBDG6969eygZdFl9ftQOQtyP4leJjYMG0suIPvlFFmNFEIiY7NChw77SkphSghZKMoKQ1Wnqz/fI36VsKtXTsBgwyQnA4XTP/yEPN918s0AaDtRg1xl5MfA7Epk7c+ZMGTZsmArnZPYE73UvXs5BgwYpqaEim1uzne8wNiRyieS+5ZZbdH6zUFFN0FrwCBhBCB5j9x0gCKhU3n333ZrFQOwEVQGjalQmPPvsc2TdurX7dYGSzawJNWrUyPR6EOZYWEPIvqCE9v4tj3Tt2kVVNTO7niXrP2slMtQEc/I3mhGRZTFEIbVsBCHMqZ32Xg5BQKgEQnjqqadqadEnnnhC82/PPfdcFbCh4Ypg02Wj5TPHlz9eCh5cUNDZX7N2raxds0aV8I477jittuZYn/g8E33dunWqoFe8eHG5/vrrZdasWUoQCO7BXMfn+B7EBIKyadMm/RmfxxXBv//880+9N3nBWDbw+7Kw0Le+ffvuIwhjx44V/JmJLyovNuPixV66bKls/327XsMIQnhz0AhCeFgn3gnJ4DVrftS6EQj78M5E0XiH0WO44IIL0gQoHn300Xoqj2ssh4MXY8DS8cADD6TJwMAyMvHFiVKoYCFf4GUdRMOCQ02JEiVUjMlZ00IXSjKC4MszTamLOASBkz/KlRTHYlJSHAVTWenSZeSjjz5UyVP8a7zYbNDU0Hj1tVdlx9871Kw2fcYM2fH335I3Xz6pWKGC9OnTRy6+5GLJlzefRvyiZ/7++++rYhpiH+vXr9eyqhAE6tO3adNGy7yyedeoWUNfiiaNm+iJn2IpFGpBlpV7kQLFzyESKG1yMoLEIGTCNTBV4h7h1AThcBrkBE11NPQhGLhXIDRGEMKbskYQwsM6jndic+Vd5X3nYJHYzjjjDJk7d+5+72wcx0CfsFDedNNNaSqUsk5Nnz49lPpBRhBMajnw98MhCNyIHF/Me7BVJFAJIqpcubJG5vbo0UOef/55Za9YBjiFEEzE59jU2WjJX6a2Bpt7ueOOk7lz5qhiG9YCcoSxAhDbALlgcYCUQBAITOIPvkleLjb97777TmrWrKnBjCiq1apdS4VTiH7GioFVAQsDv7+89eVSt05deWzYMFm2dKnekwUIi0JiKVYWJ0jCPzv/kbffels/g8nVCELg02zfDYwghId1HO+EuwMXB1ZDt0AS7z2uv6jKJ2cGL9Yzyj27VRXPO+88JUCsT0E3IwhGEIKeY6ohTgwCpvvTTjtNJ/aGDRt0g2Yz5SXgZE4gHwQBrXxO8bge8uXPLxfUq6ebPYyaVK/1P61XtTEifTnZN2zYQJo1a66bf//+/eXqq69WJbIuXbrozzJKEKqcWEWqV6suxMkMHz5cGjVqpP5K/l2pUiW9zogRI5SwEEAEkWAsyWIiID3NmzdXa4MRhMCnWY4kCATFLlmyROcY7wMmYGvpI5AYMOkWGyJ2CAKZCtV7saYSR+UmORySSNMMYy4YQTCCEPh6kxikSJoOJ2qsBLyk5CLjZ8OK0LlzZyUIvABvvvmmHFL4EJn3xl5ygV9szpzZctxxx6t7gmAaPouZn38jeoI7gE0ZM+KWrVukebPmGuOQEYLgLBq4Itj0kTQ96aST1LwHYcCiQX8hIPgGmzZtKhMmTEgTpJgIphGEwKeW5w1yigUBa9TEiRM10BWSybiweFk7MEEYN26cWhXdBKF+/fpawbdo0cNiDyPWUwL63QThrLPO0tiqHEoQ9uo+c6IiSpMF17IYYj9Xs9XBxCDFxx57TAkABIEgJtwBVNUkboCTP6bByy67THjBWRTfwPrQvLkQXDR37hxPgsBLhPUB9wKWA6wUxAlgASDN0U0QePFwN3AyI58YEsDiC8Fo3LixvnhvvPGGkhYWGKwQEASCDY0gZGsqhPLlnEQQnntuvFx3XRfN/Jk583WpXfv8UDBM5ZtgQZg8ebLKFbs3V9ybxBf5nVYdBF64VRF6wsqa2MIcQ+gWBBbjTz/9VCPKy5Urp6c000EIYnrF55peQYru3jEvHIIAgSTQD0vDyu+/l1o1a6qL4fHHH9/rYli/Xn37BCbiYmCTb9mypaZR4qqAMBCpfPnll2usAwQBl0C9C+rJT+t/0rgBXjwWEYgF9yEGoXz58lKtWrV9QYsESzoxEKeceqqMe/ZZdTdgQYBgYMEgQNFcDPGZa/TECEI0zwOS7yj/Qe79SsPL7GiwvCx4a4E0a9pM14TEVqVKFXn7nbelVMlSmb1s6J9nLUOvwV2mGivn5CmTpUhhf7JEwGuvoBsVlvMpGXXWtNAJQugoi4ilOUaB+v/umVWCwIn+r7//khu63aAWBUz8TpDiDz/8oFXNcAWwSUMuCD7EKoHewIoVK4S0KyY/BKF9+/bqFiDLgc9UqFBBAx1xH/B/CEL16tX11IHvDzcDhAESwink5ptv1riIoUOHSs+ePdVaQRAUOcPJFNnMxRDNvDOCED7uvGcc/Mje4cBHXBGpyFE1spEg+1gSExuWg4ULF8amxHMyfLCC3H777YLF1d3atm0r48eP903oifUNd+nKlSs1zgUrqqM8awTBYhACf4cR4GADp2E2IwrXy4Jw22236eZMzAHFVDjZs/CsWLlCBg8arL+DMJDWSNAgtdGp9c5JBXVO2DaLFN9hotPIhyZ98oorrtCF4c4775RvvvlGN3j8kR988IF+HosF8QyLFi3STf/9D97X0xBFUXgh+R65059//rm+uKQvYv0iIjqZL5D4B+IjYOR8jtOLteARMIIQPMbuO7ChQeJJy2NzwR1SrVr18Dvy3ztyOOB9JpA5seHOJqUZ62LQluvsDB6LKVZS0sITG2sd2V64OjMiGJeRPnBIatWqlZZ75tAzaNBAKfTfYlBGEIwgZGQOZesz+NAQMWJCO0GKXhfEHYDPH2LA55wXgA0cmeb169ape4Hf4Z7iNOC85CxQ3OOHH75XoRZOL/yOe5OyyMLAZ7b++qts+OknJQhHHnnkviAmp1/cC4nk1atXy69btyop4A9xEjTMfVt/3Sqbf9ms/SR4EgLg1RLHTVpVss9lC1z7choEjCCEPyniJrWMawFrIC5C9waLexFXIe9vXBs6MBAcMr0SG1ZVCA5uWP8Iwq/SvHkLjQvUapGPPmIEAdBZ9GFo5MZaMwQMgZyBQE4iCAhxYVnjVM6/CVCLY4sbQcD6h+UQK6O74YLENYkKahwbhxBcNcRSkRqe2LBWUt3z5JNP9q3rsarF4NuoMnEhi0HIBFj2UUMgxRHIKQSBx4Dg18qVK9QqhksLjZA4trgRBDDi8HfppZemyQLAWkiAMoHGfp3C/XwmWFJxiUISsGgmNvqM2Jyf8yB2BAGGxMDxp4QR6WoEwc/pa9cyBOKNQE4iCPFG+n+9iyNB+GHVD1Ln/DqC2FRiY88hJoqAY3extTjgTWo2WVfEUSQ2XKaItDkWJb/6GiuCgI8ZZkdRHURyatWqFbhv1giCX1PJrmMIxB8BIwjhP6M4EgQkiglcpuaLO1WwVKlSe+XVa9UKH6x07kifCZKmYiyYJjZirpBYJjvDzxYrgkDEJBGkTkAEfiITSvLzcdu1DIHcjYARhPCfPxZh/PqUISYYl6qtfvrJszIiNtjFixerdgqumsSGa4FUTKTTnQDkrNzDz++A4YcffSht27RNY/Wgv+gfoKzpt8gTAZ1ow4BVkyZNNFCRYEha6FkMVs3Rzyll1zIEDAE3AkYQopkTZO38/fdfGi/BphuHrB2C/Aj2I83Y3dBVQU8AAhGHvjqxB+i5ePWVNFI2cL/TMyFSaCHs2vWvFChwkGZ4RSaUFA1B+F4o0oF4TmJjEiO7iRKfNUPAEMgZCEya9KJceeVVaargIYSFidbPAK+cgVjOHQWncoL9SHnEeu22IhD4iSLqqaeeGmnAIhs06YuUrCdd292ISUCGPuwqlLnCgrBmzRoV1HGLZsAaRz8+Wq668irfWVnOfeVsZIZAfBEgvY1ALgqAuf3OSGdzkkymfBnHUTEGZxysV2EEdccRh+z0CWKAEipqgW6/PidlZNofffRR1TSJIquBOTt9xnTp2qVrmsBExs18feaZZ7SfYfcvVxAEiu1gmkHZzt2o/IffrHLlSqGDn51Jb981BAyB/RFgI/3qq6+1Kiiyse6GqZlTWpwFchL7zOmXgmJYPTArt27dOlL54lSdb44MNKXXEVpzN0gXiqeot4Z9QmfOovCKhcMtikQ/ee5O36IoUZ0rCAIMjcjQhx9+eF8xEWeSwMjQ3XeU91L1JbB+GwK5HQEKzkAM8OW688cRGkLXnhLAqdIYA+bvbt26qY98+vRpUqtW7VTpfqz6SXwEAYkIJ7nFh+go7mYIZK/eveTYY44N5bBInxA9Qsb9q6++SjNn6ReBnmRbUFk2bOsB9w+dIPDy3nrrrcqa0Jq+4447NCgiyMaL9uWXXwoMkiI/1gwBQyB3IYCvedr0aVKxQsWUGTjrlpV79u9xYUlm78HV4HY/cRcsCdSBoVorG3JQgYs8V2IO2PiJOVi7dq3nIMuUKaNaDbgWgurLgdANnSDwYCj1jB4CIhUEDIXhV+N0gQmpV69enkztQEDZ7w0BQyA1ESCNesyYMVp0K6qFNivIpRpBiGMWgxt3Krhizqeqq9vK5JAEpJghCRRz81tIiRgICAEb/7PPPitbt271nBpYvJAAcMrRZ2X+ZPQ7scpiyGing/gc4kx33323SlVCUKwZAoZAzkYA0zHFee677z51JaZSSyWCkKiDwOZGXn3UOghez5oDKhVeyfX/YskSEZeUMd/BlI+///LWl8uVna6UqlWrqgsiOyZ+3NxYMBAJHDt2rKCWyM+8WsFChaRrly5qXUhWKdbPeezoIFCpllLPkeog+DmwzF6LSYz1glKZmJmoFe6Oas3sNe3zhoAhED8EsEpSrbNr165yyy23hB585gciqUQQ4qikmOwZsDFT5v2GG27QMvFelgSHKLBBU8+hffv2UqlyJSl2+N4KsgeyenNNMMGqQmAkFgusWJCT9A6nuNupw4D1AEGk7JCSjM7BWCkpZrTTQX2OB0eQCopVz094XhYsWKBEgUmTbKIE1Re7riFgCPiHAIspLgRkdElrbte+nZx+2umBK7X6N4L9r2QEIShkRdd7TvFIMX/88cdJT/P0AEKARaFixYoqc1yzZk057bTT1D2OtQSykCePyO7dezS2AQJA/Qeu+/bbb8sXX3yhbgV+nt4eQzojdRYgLiVLlgyFHDA+Iwge8wx2h+71zz//LPilyJU1a0JwL6Rd2RAIGgEWck5dJ5xwghxxxBH7KcIFfe8gru+Y7QcPHqzEh1MlG1McWypZEBz82MzZyHE/Ud3RK7vBjTVkABliXA4EEUJGixQpoiQBawExBRs2bFBLNfsLsW8HOnhCbI8//njp0aOHBu6Hnc5oBCGOb5T1yRAwBAyBAyDAqZOIdxoBc5xY49hSkSA4OBIbgD7GwIED9cAYZoP4ofCJ2xvrhN8yyhkZS6wIAmyKSQ97AxxES8Lws2QEKPuMIWAIGAKGQOYRSGWCwGjZk4gPQDSPQEIvuePMo5L8G1gcKlWqpCJIxBwQL3OguAY/7594rVgRBMw4CFZ88803UrduXVUHSxVls6AekF3XEDAEDIFURgCCQDGhm266Sa0cM2dSlrh6Sg2JwyvEYN68eSptTAwBLgMvzYSsDgz3RLly5VTZl3RL9Bai3mkr+8oAACAASURBVP9wr7dq1UrjJchgGDRooBQqdIgOMXQdBIetvPvuu9KlSxcZPHjQvs5kFXT7niFgCBgChkB0CDhyxlQidOSBUadNxQbZQdAPdUOULJG6Jq6AGIOsNCzkuIdOPPFELTHdqFEjKVu2rBKpOFjPcWE999xzGot37rnnaqqj48qKhCA0a9ZcHILwyCODjSBkZdbZdwwBQ8AQiBECnLSd3H4nuj9G3ct0VyAKuB7WrV8nny/+XF0QKPJSFZhYBQgDY3aC2/dmM+RRglS4cBEpV+5YtRBQ7+f0M06XqqdWjWUcCeRubzDlbsmbN5+6/nNVuedMzwz7giFgCBgChoAhkIAA5IfTNtkJZCmQAQFRwNoAScB9QBYN2Q1UhsRqgIonP48qviC7D9AsCNlF0L5vCBgChkBACHBKdYR12GxSSSo6IEhicVlO3c6fxA5x8nb+xKKj2eyEEYRsAmhfNwQMAUMgCATYgKj29/jjj6vZmjoy1AmwZgiEhUAkBKF58xYag0DEpMUghPWo7T6GgCGQSgikkpJiKuFqfc04AqETBNIcqcu+bNkyueCCC7TCWtRpHhmHyz5pCBgChkA4CBhBCAdnu0tyBEInCEx6gjx270YoqUDkQkn0h0jUA8lh2iQyBAyB+CNAMJgTTR7/3qbfw1QjCL/88ousWbNGffAVKlRQCeKc2pxiTO44BGfupVJQIsGXpDhu3/67HHFECQ2wdPofOkGIy4SBFBB9umrVKqHMJdGokBZrhoAhkJoI5MuXX0qXLi1nnnmmHH300fs08lNzNFQi3iPPPTderruuiwYnIj5Uu/b5sRwOUfwvvvii3H333Xroe+GFF+Scc86JZV+z2ilSAbGAk8mwadMm3VTRR0Bcif2ESozUAGHuoQFB8SVqNvDzOBMG+o+iI25//r7//vv3FTjLdQSBl27jxo3y4qQX5eWXXlZXBw/dCjVl9bWx7xkC8UGAhZiFuWrVqtKmbRtp0byFFC9ePBaCNJlFKdUIAuqDVCKEzMydO0eqV6+R2SHH6vPsCZABDpEfffSRKisuX75cVq9erRWAIQx8xrE+O9kLBJQWLFhIjjqqjBZhYi5SZwHCRCGmuLnUYyW1HOUMgOV9++23ynLnzJmTbl3uKPtp9zYEDIHsI0Ba4OWXX64nomOPPTbWpziv0bLxTJgwQa6//nrNYnj11Veldu3a2QcmgCukei2GREjYJ3CXfPrppzJp0iSZP3++WgwgBFlpEAcsCbhdmI+XXHKJlo5mfsZBSdEIguw118H+0L/mwZvFICtT3b5jCKQWApxmL7roIhk7dqzK26ZSY81auHChvPTSS0pukKZnk4ljywkEgTFQl4BiTWPGjJElS5bIH3/84etewXykMFPDhg2V+JG2ipBSlM0Igoi6EXr27CnDhw+3gMQoZ6Pd2xAIGQFMuvfdd5/cfvvt6g9OpUYAmXNyZRxRlAPOCF6pTBCcwPl33nlHRo0aJW+++aZs3749I8PO8mcgfMQptGnTRtP9iVuI6tnGiiAwkfb6b/7RGgyHHXZY4GYWJsB7770nLVq0UIlMrxYHU0+WZ5t90RAwBBSBZNlIyN/OnDlTTjvtNEMqAARSlSAwXwhQHz16tAwbNkyrN2amufeNzGbDQRTOOuss+c9//qNp/06RpMz0IbufjRVBIHPgjjvuUNMZ/pgwWD0M/NZbb1VFMrdrgQdUvnx5Ofvss2MXPJLdB2/fNwRyEwJYCT/88ENZv359mvec01m/fv2kR48egR9IchPmzlhZVydMeE5uu+12XUenTp0q5513XqyhINZg5cqVOidmzZqVoZi0vQGIBbXOAnEtEE+CYvk5ktgcQNeuXaukg/mIVPaBSAMk46ijjpLbbrtNOnfuLIcffniouOFWadeunZZ7vuaaa+TBBx+MLosBthJ2NUceGiUsiUR1N34+ePBgKXt0WckjeUJ9MHYzQ8AQ8A+B3Xt2y+pVq+Xaa6/1fNcvu+wyLWsbtc/XvxHH50psgqT9UfGQQ9f5558vJUuWjE8HXT3h0IhLAXJAmjtkIVkjbqBEiRJy6qmnSvXq1fUwSewAxIDfOSmMqqmze5fs/GenkgSuC2H95JNPNDgewpAeWYB0EGfCoRnCEJZVGxKDhZ3sPmJcTj/99H01P0JPc4yCIJCWQlDIN998s98ccPJ1W7ZsGdrDiO0bYx0zBHIAAizAI0eO1EXWHXVep04dmT59uqaaWcu9CBDXsWDBAt2Mf/jhh6RAsEGXKlVKrrjiCtUHOObYY6TwIYUzlQ3DvbZs3SILP14oQ4YMUcJA6mSyhiUCyzruDjQVwiIJyfqTKwgCzLZBgwZaxzuxkXry2muvSt269XLv22IjNwRyGAKkpl155ZWq2JrYOP29/vrroZtwcxi8KT0cLAXvv/++kgP3gdEZGJsy2hlXX321mt6rVKmiVqfsbNaOMN+CtxbIqJGj1JyfLG2Se3Xo0EH69++vGQ9RtlxCEFZKgwYNkxCE16Ru3bpRPgO7tyFgCPiIAGmBpDPnBILw66+/yoYNP4lIHpXAxQxtLWsIYF1CGA9rAGZ/L3M/LoNzzz1X7rnnHtWcQKvAz8Y9f/rpJ3niiSc0lZJ/ezX6ce+998qdd97pex8yMx4jCK8ZQcjMhLHPGgJxRyCnEAQ2kylTpkjv3r01uv3JJ5/Uzcta1hAge65r164yefJkT20DYgnat2+vGQXlypXLlCshsz0ioJGsGlxhuMC9yApxD8THYcWIIruBMUVAEH5THwsBIuR/PvTQQ4EzpO+/NwtCZiewfd4QSFUEchJBSJVaDHGfK1iT2GwHDBjgGQNAwCFuBzIJyEzIjjsho1jgYiBwHitBMvG+SpUqySuvvKJBkWH0yd330AkCD2rGjBka5YlGNWacoNmREYSMTln7nCGQ+ggYQYjmGSZWNnTqEkTTk/3vSgrmBx98IK1atdJIfXdj/0HVsG/fvqEHsNK3RYsWaXrhF198kaZvBC22bdtWgxaLFSsWGJzOs3M/t9AJAiN0yivTmTDUo4wgBDav7MKGQOwQMIIQ/iNhgyGVjxMxa3r9+vUjD7BzUCCOA+vAyy+/nMaUzx6EW2HgoIFS+sjSkZzS2Q/nzp2rsRFeBIa4E6TCIQpBWBFwd6AeSaxL5cpVtKgUMRCRuBjCn7oiRhCiQP1/94Qlk+7jbvj8WEyCmPSak7xrl/oauUcYRNQ9PqdmvFMjPtqnkHvubgQh/GfNe4bGBCZ6TuSkk8ZBKIl3EGLACR2RvsTGunPGGWfI+PHj5cQTTwxkHcrok8CyTols3A1eao4XXnih1uQIwoqAUBKSz7j9wSnR7R+JBSGjoPn1OSMIfiGZteugVkbq2d87duy7AItIhQonSM0aNdXn5zDWrN0h7bdgxai5caq5+OKL5cwzz/RlAeC6vMz5C+SXQwod4nlNFiVOLT/++KPmWaO5ftzxx8lhRYOXFfcLv1S+jhGE8J9eXKWWKbbUunVrTW91N2T+IQ9IHDtiR+Ej9787IqREei59cjesCE899ZS6Sfw+7MRKajmKB2AEIQrU/3dPyqWiYgeD50XkD6d7JjqpWw8//LA0a9bM15d02+/bpOMVHTVS+LHHHlMTox+LwLPPPivjxo1TRbU+ffqkCbCFHHz55Zdy8803y+LFi1VqFTKE2e7RRx/VYCM/+hHtE4333XMSQeBUedNNN+kcmjz5FalZs1YswY8jQaBPSPo3adJEyze7rQddunaRRx95NPAg+Yw+MNYO1gzWSrR73P1FnZKARQSU/GxGECyLwc/5lOlrzZs3TwtlcfrGj0YKES8AYiEEq1KO96WXJknBgoXUFcFiyMtCRbWihxWVAvkLyM5/d8rv236X37b9JgUPLqhiN2iiO+4JPk9UMCQE8sEmTC48GusE+JDe5Oii8z3ICQuIo2qGOIljxaAP3JvTB3nQRYoU0T5x3QceeEAFTKjpDlGgH4kuEr7HvSZOnCiVK1dW2VJkTBknYl0s+GFrrWf6gaX4F3ISQUDcjQA75jNmZqxtcWxxJAi829Tg4eTtllJGyph0xzi4QRKfJ2skmRasMe4+Y/GgFHXNmjV9nQJGEIwg+DqhMnsxhyCwkZLBUqtWLd2sKb1NCe6jjiorH374gQbiYG1o1KiRMn5ETZ56+ikpemhR4eTOH/xlSGTjO0RIpGLFirpBk+PMCR1TIhs8srpoobO4QhDY0G+55Rb17z065FE568yz5Mc1P8q111yrxAW/G4vFtm3b9D74UyEbmPYgN6TksqCQKoXbALnepk2b6hgSN3wKBWEtoP4H18EyApFgoeIFx89H6pK14BDIKQQBhOKaGeB+enEkCCtWrpDza5+vxbsSG2SLrIWBAwcKarpxa6xbHCYo+OTuNweU7nd1l4MKHORbt2NFEDjlkdaxdesWOeaYY1XG0m+fihs5czH4NpeydKFEgkBcAAwYPz7a5Ez4448/Xq0JkIXnn39eZU45iVMjffbs2fqzQYMG6YmfCmpsvmz0XOfFF1/UzRrW/cgjjyjr5v/489j4WWAhCJy++ENsAAFUqGd+9913+/qC6Y6fQRRYOJinkAP6gfXgxptulOLFisuw4cNl/bp1alXA8vHEk0/oz50GUXnmmWf0vgT+lC5dWv+PmRgi8dZbb+mctxYcAjmJIASHkr9XjiNB4D3HXO+WNIaosw5xiAgiQDq7yGK5ROaZNcldfRg3A333M1gxVgSBEyBpJWwIVF3DlOK3nKURhOxOUX+/n+hiuLx1azn2mGNUB53UGuYDFgNO7JyyIQNYCEj54edVTjxRGjZoKOvXr5P77rtPOnbsKCtXrpCOHTvJhg0blBTUqlVTGjW6WGVLORlgKSAoEtIAScgoQaBaG7ocBBdS5Y3gJk7/KNhRs/3pZ56REcOHK1mB4fNzCECymAIsGV8s+UKtFOQ416tXTwOQzMXg7/xyX80IQrD4el2djYy5jVWP9xfrGYHBUTVIAXsLqojudtppp6nrkXc3jo2KkLNnzdb1B7KQ2Ig/wMqKhpBfDaspblGsrdSAQLnT2ZNDz2KIopqjWRD8mkpZu45DEDiNJ5ZHdYIUH3tsqBbMIsUGgkDKEdXWsCS8/8EHcnGjRppTPXv2LKlUqbJu+kxkTP5kKEAaYNxs1LgYsCxs2LhBmjRuotaqjBAEFjfK03KqwDrAAsJLiKVi6dKl+sIQYEhAJYsO7oUJEyYk1cbf8c8O7V/fB/pqJgWxCPhCTznlFAtSzNo0yvC3jCBkGCpfP8i7snHjBq0bgaUvSvM97kGqMGJFSGysOWyGuCMhMnFtHH6waLoLShErRQ0H1jy/rB9YXYmR+vPPP+Tww4vpWusceowgWC2GwN+RRAsCG/kJJ5ygLyeBQtRWL1u2rPaB3xHEh9+evzHtk4UAkyawcc6cObrwcDInJoBTCtr0WBuwGrAg4eM/+eST1ZXQvHlz/b+bIGCiI7WJjR+THfEQbCqQF+5NiVeES4gV4OXBHZInbx4pVLCQqq0diCBgFcG6gKuChQpXBBkPxE1YBkPg002fZU4p1hQ8WjnzDsQwEevk3mAh+lgFW7ZsGbhrOzvIYjnA0u4mOKwfaCXgCvWLIKTXTyMIRhCyM48z9N3EGASicDHjuxsmQYcgUJyEDRYS8fXXX0uNGjXloIMKaIAjhGDrr1ulZYuWWrYVq0Pjxo01O4LNnFM9xMCJLyBeAYLQoGEDufCCCzXwBwbOPd544w259NJLdaHAgkDMA+mLEJNXX31Vgw1xhfXq1UvKly8vI0eOlBEjRihBIOgREoO1IbHRBzaoqzt3JsJMbrzxRhWPwWfIC82YjCRkaNpk+UNGELIMXY75IsSAd9ktOoRVkkqOvM9xbrhsunfvrpYOd+PAhEs26BIF3NcIghGEwN+TrBIEzGmkNba+vLVu5sQB4Psn9QtmzeZMtTusCxQAQ+YVUz7BiCwCWA940SAIBCtxkkejADM/5rt3331XXRBch4Agro/rgOuwuGDdIE6C70AoKNFKYCXWAKwexETw88QYmkTLBUGOEBqnRC/BUfeQeVGhQuCY5+Yb5CSCQDrwZ599puSSEzHmX2vpI0CAMO8tBwXcmontpJNOkgVvLZBSJUvFHsahjw2VO++4M026IzLWrHvuw0kQAzKCYAQhiHm13zWJJ4D1cnJmI/bK48WCgG+QxZ3NftSoUQJB4GWf/+Z86d2rt27UbPh7RKR4sWLSrVs3TflBJ4HYA0qn4kvLkyevHFX2KMmXN6/+HxaOdQLWzekfKwLuBLIn1qxZo6d6rAGQBiwJbPxOCVasCxAFroGLAKJyww036PcIanx95utSskTJfePFcoH7wi3MwgcITsQyEWXwVuAPOwY3yCkEgbmPngaiW8zXZO9ODCCPVRdYI8AKVUJH58TpIGsP72AqBApjDe3cubO6QBMbhxcssX5mMiR7gBEQhL1ZDJzuyGLo16+fZTHE6vXyvzP44dEO4BTEpuzFfFkMyR7gBM7LS6yB42Mjqnfjho3y1VdfCbLNmAkJGCSWAdEjGnEJq1atksWLFylBIFKZzZ14AFwHRP/yGawP/OFUT4wB9+PeWCFIj9TrrF6tWQc/b9yoOgtYHAhghODwsq78fqWsXrVar4EbAiLjNHyHnPrcIif8nv5g2nQsCv4jbVcEgZxEEKzcc+bnNASBOAMymghoTmxYETkE8K7HvU2dOkXat++QhuRwwCD9u0SJEoEPIXSCwEmRkyC+Icy0LMCmgxD4c84RN+DFd1QSkxVAcjbm9AokObnFyWIBnCJLTqEn9+cSxWssniB+U8sIQjTPBHLtaA5glQt6XU82St7bZ599Rrp1uyENQcBFyfxIBYIwbdo0dWG6rSB+EwTWMw4+znpHbINzOAudIEQxdS3NMQrU7Z6GQDQIGEEIH3c2GWJ3MO3jDqH2SVSBgGx0uGawULs3V9KYyWJKBRcDWi64SciiSmwovuJSxZLqRwMjUrBxj9aoUUNjN5wUUCMIFoPgxxyzaxgCsUHACEL4j2Lvqf3ZfYWlZs2aKdWqVQ+/I/+Vp0bHhFgmt9AQQcxz35grJY4I3jyf3cE//vjjiieWmcRGrBTWBb+sILhhyeYiY4v08cGDB0mhQnslqI0gGEHI7jy27xsCsULACEL4jyNOUstaFfHzxVKvbj2NQUpsaK98/PHHGpcU58YYCJZGd8XdOOFPfHGiFq3zo8VKatmPAWX2GuZiyCxi9nlDIHURyEkEgYA6hHHwCxPVXq1atVg+mDgRBABCiZAAYrKNEhsBwmQxIJAW5/gh3AqOsuz+DzyPdOt2vRaJ86v/RhCsmmMsFxXrlCEQBAI5hSCADemya9b8qPLFFSpUkEMPPTQIyLJ9zbgRBCwHVGElxTqxER9xzz33qPiZU94924MP4AIUfWvYsKHquSQ2iCIVZXE9+KWkGCuCgOmESHP+hgGFEelK2pkjsJMINtK8r732qtYBsGYIGAI5A4GXXpoknTqlDe4if5zgrlQIUEu1JxE3gkB641133aUiae5GoCI+fITL4tjYGyn5jOAbRCGxEXeAoiwWEL9arAgCphNUoDD9kKtOhbugJSPJj6cyoFfhC3w5zZs1942N+fXQ7DqGgCGQeQRYXEePHq2VQd1lfllUUeCM68aQ+dHG5xtxIwjMA4TRqNPiLplMFUenGJtfp3A/nwTkhqqYiLO5AxTRf6GaI/Vi/GqxIgiYfpC9RSiJiEmq4wVd7hkzHdr5CxcuTIMp0Zv0oUyZ0kYS/Jpxdh1DIAIEdu/eowcP1hVktN2tVatWumk44loRdDHH3lIVT+fPl7Fjx6rpHjM+VVmjbIsWL5IL6l2gYmiJjf49+OCDWuAt6MNpVsbPgRZBJ9IOExtkBhVXisD5uWeS6cEeuGTJEnVrQKoc8bfQsxiiKPfMSYKiORQAcrNJXByINWF+TFTEy8qDte8YAoZAdAiw0JGqBUlwv+e4Mx944AH1Pcfx1Bgdav7dGbEdR7mQDSxqHz8KrhwAqQUDgUlsyKRjqkdBNU4N9zsl79FwcEssQ2wJWuWw6+ccBhu0ELg3hIl9MDKhpCgIAgAQrMIJwl3dy5kcfkWExmmyWV8MgdyGgJsYOOOnyBH69RTkspY7EGDDI9agY8eO8ueff3paEajfEqe1f8PGDXJpy0vlgw8+SPOQqlSpsq/kfVhPMFdYEABz+x/bpfud3QXxCWuGgCGQexDgVNSzZ0+5++67fTXNhoEgm5zjh2YccdrMwhh/du+Be/niiy9Okw3AdXGBTJ48Wdh4/TyRZ7XPWAxwfQwYMCCN9QBlQ9w2BF46KodZvU9mvpdrCAJWhKVLl0rbtm216I/b5JQZ0OyzhoAhkBoIsKHWrl1bxo8fr+I4cdgIMoocaxTlyDkFM45OnTpFJl+c0T7H7XNYlEgL7N27d5qAPzClyuzIkSNDqYyYHjb0kxgARJCoJOtulKmeO3euIPQU5hzONQQBwGHjFIriJIHLwe3jidvktv4YAoZA1hHAZ9usWTMt8U2cUaqdviEIiCNR1hx//owZ06VWrdpZBySXfpNKsm3atPEMUmeOEJtCjJqfgX+ZgZrnvHz5ci1Jj8qj203Gs7///vulR48eocd1hE4QCBxhoJ9++qnGBFDrPMyoYsD/6aefVDcc8xLlg0m9TOa7zMyDts8aAoZAtAhAAtA3wXzMpsAfSnWHeeryC4G9qXrj5brruujGMHPm61K7tn/57371M+7XwUVD4B8ZAO7aDPSdssmkFFK7IexAdZ4x+xF7In10W7aZt1RvpPgUQllht9AJAhsxJOHff3fKwQcXFKQvo3h5mTSkv6xYsUIWL14sGzduNJIQ9uyz+xkCPiLAJkqO+9lnn63R6QgipZrVIBGOVCMIZDA41RNZ1+OUQrht2zbp3LmzHgq93MuY7seMGaPphWH5+OkHMRLdu3dXcuDWPGAuoNlBhUz0goKay+zJBHFyf8aOJSWyLAYf1wNfLgU4jrKjyP6pML7cwC5iCBgCISGQZ586axSHDr8HmUoEgb6iUjlkyBDdZMjVP+WUU/yGJMvXo3/EnlE+mbgOd2O+QC5JgyXWI2hJa/adZd8sk//c/x9Nt3TSQxP7hTXj+uuvVxdIkP3Zvn279OnTRz777DONgcDS4lj1Q7cgZPkJ2xcNAUPAEMhFCKQSQYibkqLXNKGPbMZsuhRz8mpIGfN74j7Kli0bSCkATuuQFAInEfTysmhAWFq2bKmqoLjIgmyxUlIMcqB2bUPAEDAEcgoCRhD8f5LEm5HRQoVMXN1eDQsI1g8CAzHtJ5rcs9MjCAqu7BEjRqho36ZNm5KSg6pVq2o/kVYO2hpmBCE7T9W+awgYAoZABAhAEFABpOAQ8RVkY6AAGMeWChYEBzfiEYYOHaqBiUj/J2sEL1Lkj0DX8847T+MBMhtXwTOElPz4448qckSsAYWYkmXQQQZOO/10GTVypIp6haFGaQQhjm+U9ckQMAQMgQMgwEbCBkMjOyOMDSMrDyWVCALjw+8+atQo6d+/v1oS0tPFAXdO9B06dJBatWppoSSHLLhP93tkj+zZvUeD/lDtRdOAIEO0LNavX6/xbskaQYiQAgghf4dR6Zi+xIogOLrPTCgme6Luc1Ympn3HEDAEDAFDIFoEUo0gOCSBqo7EArgLI7nRhAiwXxUrVkwFt4hPOOGEE1S4iLgFNnOI3ObNm9VagPbCunXrlBQ4dQ7Se0Lsg40bN1YrEcqOYZGD2BEE8lAfeeQRVTWsX7++srKwc0+jfZXs7oaAIWAI5CwEIAjjx4+Tm2/eWyGRuhfVqlWL/SA50VPgC0vC+++/75lNkN6Jn43cST/k8AsOXumKya4B8cAiQb0IZJSPOOKIwGMO3H1xKiyDA5VQE6tFhp7FEEWxptjPUuugIWAIGAIpjACbI3oynMjZNNu1ayfHHntsSoyIvm/ZskVN+wQQ8u8wGjgRhMg90e6I6qCM5eOll15SqweuDbQgnFgLIwhhzAS7hyFgCBgCORwBTuOOjx1zfFDCPkHBiCsALYBx48ZpOiQiRkEo7EIEUPq86qqrVAocl0WYLgU3fhAkrB78zTNLjHMxghDUbLPrGgKGgCFgCKQUAmySBBhSCoCMA2r2EEuAkFF2yAIEALGjk08+WVq0aKFFoihBntmsiLDBNIIQNuJ2P0PAEDAEMohAqmQxZHA4KfMxiAKkgDoJCxculKlTp8p7772nmQn8PL1shL2DzCMFCuTXzJPy5ctLo0aNlBgcd9xxGugYpcUgMw8h1xIEJz/ViTolN3bPnt2Zwc4+awgYAjFCIG/efJp+xiJMHYZUz5BydBCGDx+uG0qcdRBiNA1878q/u/6VHX/vUJfDt99+qwX+1qxZo2qMBPjhmsC6gDWgSJEiUrx4cc1yYB5SYOn4449X6wECTEGLHvk9+EgIQosWLVVikohJanWHXWaToAzEKlCqQryCB+/4YPwG2K5nCBgC4SDA4ssijaZ+06ZNpX2H9lKlcpXIgr+yO+pUUlLM7lhT7fsQgn92/iO7/t2l5IBnxfyDyOUvkF8K5C+QcmTA6xmEThDw7zz++OPKxGrXrq0ln8OsnkWEKgpaBKLAAA9sKkq1qWv9NQQMAQKtCP5CU79Lly6aq55qzQhCqj2xnNff0AmC49txhJJg/GGZXSAE9957rzz33HP71Mly3iO1ERkChoCDACbfG2+8UXr06KFuh1RqqUQQ6Ct1Br7//ntdz0866SR191iLPwJYz5ctW6buEqxvuEScGInQCUJUcAECvrw77rgjXVnNqPpn9zUEDIFgEMCF+eyzz8qll16aMsFhIJFKBIEDH1H/FEHCIoy88LnnnhvMA7Wr+ooAxOCKK65QwahrrrlG+vXrt8/tnysIAi8ayo1EkR5IUtNX5O1ihoAhEDkCnGjR0p88ebJGlKdKBoisoQAAIABJREFUSzWC8Mwzz8gNN9ygefRz586R6tVrpArUubqfsarFEMWTwHoAK0JO0y2DyeKBf5Ko01QT9ogCS7unIRBXBHi3iS4nzsldfIdTLRZEAqNTpTGGCRMmaBwFm+6MGdOlVq3asex+KtZiyCyQjqAQYyVzgcw35hqpqGTA5cuXXwoWLKiZDGQt4D53pJjDcqNndkx8PtcTBEwoKFZhQnE3yqcOfmSwKlvlzZM3K/jadwwBQyAGCOza9a988cUSuemmm2TVqlVpeoTe/ZNPPhl7cRqn42xIixYt0hx8NppOnTrF1gKSkwnCjn92yO/bftf0xnfeeUc++ugjWbFihVaBRBPByYCDxPEHklCyZEk57bTTpEaNGupqKVmqpBQpXCSWh9BcTxDWrl0rDRs2lK+//nq/RYOHOXzEcLmm8zWxLaMag3XXumAIpAwCO3fulAceeEAefPDBNBlKF154oUyZMkVPd6nSyLJyrJ6cSONq5cxpBIF59PPPP8sHH3wg8+fPl48//lgDMLEc/Pvvrgxp5kDqeGboIqCgWKdOHalXr57WX0BAKS7PMlYEgQlPNsHff/8lRYseptWrggaKB9ugQQNlfYmNh/Tqq6/qQ7NmCBgCOQOBSZNelCuvvCpNplL16tXl9ddfT7lshlR4KjmFIEDGkFaeOXOmEFPx5Zdf+pbxhpuB/Y69CFcX1msyPaJ2P8SKIGCWIZAFM0379u01/QiTTJDt++9XSoMGDT0JAmVJ69atG+Tt7dqGgCEQIgJUpsMcjyBaYjOCENxDgCAQL3H77bdrFgOWmvPOOy+4G/p8Zdw5yCi/+OKLMnbsWFm+fLm6D9yxLH7clgMxKbf169eXm2++WSsohqUF5NV/XPDsxU4Ww4ABA6LLYoii3LMRBD+mtV3DEEgNBIwghP+c2Eh//PFHWbJkiVqEIQecllOhQSSptzBkyBCZO3euBh6G0cDpqKOOUp2Otm3byjHHHBOJNQF3CuNHURh5aFwgkekgGEEIY+rZPQyB3IuAEYTc++wzM3JHtA/JfQT0EHrKSMMl4Mh6c/Inlo3/Y0Vhs00s5pQRCwRE4YILLpARI0bICSecECutjtB1EIwgZGQK2mcMAUMgqwgYQcgqcrnne2zcVGpEdp9YAyT402ts4qQvVq5cWbMS0NUoU6aMpsgXLHiw5MmbV/7d+a/88ecfsnXLVnVnk4HCyRzi4XZ3ue/FiR31SdLxiVGg0FgcmhEEi0GIwzy0PhgCviGQkwgCZl+0HTihcrpMpQwM3x6ozxfipA+mVMdEdt+tjZN4O+LjKlasqCd8CoARWEhwOxt4esH1jiUB4jFv3jwNhv/www/VjJ9e/R/cDH379pXWrVsHHpuXEViNIBhByMg8sc8YAimDQE4hCJxyX375Zenevbumy7GZVatWLWWeQ1w7Svoi4lNTp02T3bt2Je0mxABNjZYtW8qRRx6ppv+sZBw4wkpk0z388MMyffp02b59e9L7lihRQkaNGqXaPVEGL9LBCAjCb8qOEJy49tpr5aGHHgq83LMFKUb7qvJCkkdMXXWn8bLx0lWqWElTffxOdYXBY+IjpRbWTwESPxqnDa7t5Dh7LRgs7H/88YeaMLf9vk1KliipwimcRrKywPjR79x0jZxEEJ57brxcd10X9XPPnPm61K59fm56lL6PlUyF+++/X8aMGaOxAl6NDbpNmzZaBRSXAuTMj8a68Pv232XunLny2GOPqfsBFUavhrIv2RTo9/i9NmZmLKETBB7K7NmzZf369SoeQeoRkz/IZgQhSHQPfO0FCxZIu3bttFqYstI8efRvzHT480irQXXMz82TdNqrr75a85mHDB2iYlh+vGhz5szRSGf8hRQ4cTN8FoHVq1fLfffdJ3yW+Y7v8qqrrtIUsDjkPR/4iaX2J4wgRPP8mPuclmm8a36+z36MiM145MiR0qdPH89MBceNw7uL1QBXQhANjDi4cB9SQ5PFJ5x99tkaH6Eqv3mDVfl13B5gkHiv0AkCgAMQk8ndmSAeBtc0ghAUshm7Lj44CmWRPsSkJ/0Jcxt/OI2T4jN27Bg55JDC++YFV+a07miZO/9P7/TOnGKi8zeKZ5ASCMKwYcPUpOg0JwrZmYsOaUlc0BwFO+6fSGDxD/KnSZMmQvRz4cKF9wOB+9511116QmGBKVeunHzzzTd6CmFBuPXWW307kWQM/dz3KSMI4T9z3jlKBmMZ5p1p3LixBvHFpbHnvPHGG0rUsey5m1PQa+jQoXpo9ctqkN74N2/erNLfqH46h6fEz7NRY0GgEikWyKAah5hZs2apQBSH9po1a+5b8yIhCEENNNl1jSCEjfj+93MIAj+lDCwvICZ4/HGY2k44oYK8++5ejXM201NOOUV//+2330rX67uqhjkBPrzgTGIih4kiJmiIF4eXm89zHz7HSQGLxLhx4wTrBQQBtxYiKGzgl19+uW7cBBCxyUM6KAVMEBhsnmvwvU2/bJJihxdTPfXatWurywKXGJaBKlWqyG233aYCI4knDSKWUebkhEBxoLr16km3669XvyPX4btBnUyifcrxubsRhPCfBRsw7pBbbrlVrWoUljrvvHjESzgaDRwYeLfdqYesH8R2kGbI2hO0RTvx6WDpfOKJJ9SKCmFwN9aKgQMHahnmoDIbICeO25/7sC5TIl0PTtu2bduT0yNjjSCEv2Ak3tEhCLyIRPOy2XJCf/zxx+WWW27RkwYvbq9eveSFF17QeAGIAJYGTiTvvfee1pnnBeIl+WfnTsFJgZ9w1OhRUvDgghrAxYbNCwfz5iXnHvyBIKDDz59ff/1VN2vUMyn9DVuGFEBc+P2E5ydI9zu7a7Qx12HhK1asmFoNEIJhEYGMcEo688wz5bXXX9MYA6dR4Q0XGo177JE9cvNNN+v1CTp6/vnnYxGdHO2MCPbuRhCCxdfr6nGWWuaEPHjwYLXgeWUQEIzIQeGcc84J3JTvhR2WVUgAKY5e/WN9nDFjhiouBtFiJbUcxAAPdE0jCAdCKNjfOwSBk/rdPXvKiVWq6OY8ceJEWbp0qVoUqFh3xx136AbKxlyrVi1NLWrdpo20a9tWPv/8c3VFQAq+++5beaBvP/l35041v1Wteqo0a9ZcvvrqK80hdlwLbMosXBklCLyAl1xyiXz66afqg+Ra06ZN01P/+XXOl4cfHijDhw1TywQnDqwJxFAkxiE4flj+ZiwEGtH3UqVK6f9RmAvanxjs04z/1XMSQeAdQY4Xwst8htDGscWZIPA+YzX84Ycf0kBHISVO8E2aNpEC+f0JRszK88Hy2LNnT41JYJ1MbBysunbtqpoNQZQlMIJgtRiyMmd9+45DEEjtwQLA6Zv4AhYV3AWczvENUsCETRQLAqdwcoIploLJns9RaAfXwvY/tsvll12uwYIQBsxjmPq5HptDo0aNNL6BzR4ikhGCQDrZMcceI9WrVdcNH0sH8RJ8n4WZhYSgRORYyZ/GvcHL7I5BcECDIIwaPVqGDhmilgfGfd/998sN3boF8pL79rBywIVyCkHgUTCP2eAc0kzmTxxbXAkCmy31fnBlOgGUDn68k3fffbfGDEXt9mO9QJuBg8lnn32W5hGzFmL59DuYmxsZQTCCEOma4g5SJI0IHxemPczupCFyQiLrAILABj958mQNFOIE36FDBylfvrye5I8++mg1wxF0CPPnhSFdlgwBNmvKs1aqVEkw9XNqgES4CQLXhHQQ48CJDBMkmwpMnRe0dOnSMnfuHKlQoaLi5vgs+T2lhNMjCCxIxDk4gZC4RfAvPvXUU0LqErENjMVacAjkJIIQHEr+XjmuBGHt2rXq6nNX8mX0uDpZZ1iP4tDAkPXv+uuvVzdmYoMgdu7cWdcyv60IsSIIBJARjIaPl5Mim4NTGCKoh2QuhqCQzdh1E4MUeSHZlJ0MFk7r/JuNFYJADAKuBDZUCAKnJ1wNpAeSB37KKafqy4PVACsDJIBN/corr9RTFq4KPg8bp/76qlWr9KW66KKLNMaAeUe8QvPmzeX9999XKwMNCwIxDywmEA2ieiEfBE1i5iUYkv5h5oMgEKXNy0wKY2KjWE3v3r2V8BARDaHBvwmh4boQBAKhrAWHgBGE4LBNduU4EgTWFNIasRK4NQ+wGOD+wx0Zp3RMYqSwpGK1dAdTYkVgzSPF2s8WK4JAxCQPhdKSnPwSS0v6OejEaxlBCArZjF03MUiR8towd3dLJAjMD9J/MAFu2rRJN3fiCyjhy++IQejT5x596fkc1ccw+WOOxdrQsWNHtTZgVsSVAUGAEEAcOElAKHBpTJo0SckCGzcvJGQVUsF18PlhycCNAHmgD2RBsOkjtAJ5IMjy9NNP3y/qmRML4+NvCsCQuUBUMJYM+skLTgU3a8EhYAQhOGzTIwiQcwLtIPak+fJuRNk4DPDeLl68eL9uQAhYC3j/cR3GqUEKWCMuu+yyNFYEcOXg1K59O8mXN59v3Sawm2BxAsU5nOFycawUoWcxWLEm355rylwoOwQBdwKBiJwCUEGD+UMMOLG0atVKFyIm8+jRozULgoyEQoUOEdIcyHTA2gBBwDzHxk7qId93YiH4vUMQcDsMGjRI+vfvv+8zXA+/L2QAqwGLCuSBeAoCFadNnyYljvififLvHX/L4EGDpf+AAbJn927tG+4OMiGQTyWdMsw0qpSZJD521AiCj2Bm4lJsNFu2kKqXR98Zv03hmeiKfvTdd99VHQF3+Waslk8//bTGLwVtvc5sn/k8xIYAadKqExvEhj7jWk0W+5SV+7HGona7Y8ffUqTIoUqanEBqIwhWiyErcypT3+FEjpmeCY4FgJrj7rZr9y6ZNnWaBiVigic2wdlI8emT7ohVAJETzPoEK17a6lIpfWRpvS6LEycY3AY0x42xfPly3dgJOMR6RT++/vprfcHOP/98vR8vCC6LChUq6GZOgOK7770rv/36m572EUUi04KFhZiCyVMmy1dffqWxCmi1J6YJcwLgPlOmTNGTCxYQPle/fn39E7W2eqYeXIp+2AhCij44H7vNAYJDA++n21TvBEETqxTH5rhGCK50SzHTd9yU6LiE0YwgGEEIY575cg+nDgLs1oldSLwwC4GTIoQ5zrNOAgqNO3cqQ04mB+tcB+LAfdynDEex0YmjSFaPgf7yh75ktdCLL8DlsovkJILAXEsMko2TvzzO0wqrwY033qhSxe5TOO5IDgqOGFDcxuHItWOhRHAtsWFBxYrJoSeMZgTBCEIY88zuYQiEhkBOIQhsFMTM4BuGGBBkGyf54tAeaBZuhDsS9wIFkRIbhB/RJDIF4uzqwwqJFZVYvcRGn8mkwuUaBlk0gmAEIQuvn33FEIgvAjmJIJDVg5kcK9TkyQgl1Yov8DHqGdojiJi5T+DoqcyfP19VUMPYYLMKCZZQMp8IwnY3sqnIwAgjfiICgvCbCs44WQyI5ARt6rEshqxOU/ueIZB6COQkgmDlnjM//7C8fPjRh9KwQUONTUpsxD9hkSEuKO6NIk6kTLtjKEjNfunll+QQgrEDbqETBHyyBI5t2/abHHlkaQ22CJoJGUEIeBbZ5Q2BGCFgBCGah8Gp14kBcrKEougJGyq1CwiIdmcwEKxMGmHc0hu9cCKlEVeIW3qZNGrGhzaMHw289maG7ZJ8+fLvF98VOkHwY0CZvYYRhMwiZp83BFIXASMI4T87NhmKqhH8x4GPvHqygqJoZDCgX9KlSxdNe05s6B8g1ubX5hrk+NBfQdPFPQaKSlHGHmE3PxokiowPROHI7EJ8zsm2MoJgMQh+zDG7hiEQGwSMIIT/KNiU0Sshc4BAOk7ppAZH0RJVHd0Kig0aNpSXJk3S2i5xb2istGvbTqXbE9sZZ5whc+bMlhIJVWSzMxYCIhGPw+2PiuMjjwzeqyWTW8o9U8WLiFa09xMbQh6wyYsvvjg7+Np3DQFDICYIcJJ95tlnpNv13dLI61IhFI2LVDg9AidjSZUYhDhJLdMXFFIRNHOfvskEIdizaFF/zPNBTnv62aHDFWnGgJsEKXi/LAixkloOEtBk1yaSFRLgltzk8xT5oU44wjlxjmqNAje7pyGQSgiwoSJ0hd+WXHF3c5Qwo67cl1FMGQ+CWwSqkcVARDuR+XFscSMIFGQjGN4dg0C5dczzKJvGvWGR4UTvjkGA6BKDcPjhh/syhFxPEGCR+HLw6bgbpiZkLQn8OPjgg3wB3C5iCBgC4SPwxx9/yhtvvCFvvfVWmo0B8n/HHXdoXQxHRjb8Hmb+jhTvQT2U/lOsx0+J3cz3Jvk34kQQnHgIov3dWQzERRArEdey2YkIDxw4UHr27JmmTDU1Yl5+5WUpfEhhXx5hrAgCD49Mhj17dkvevPlCEatg8hI8Q9CKu4wmCPPyJVPe8+UJ2EUMAUMgcARYW9zStM5NcStQbAtXozX/EYgTQWB0uJWxFlBjILExD6jRQOG0OFuM2SPRv6AGjLtx2CXDwS+hp1gRBE7zbNaU4cWXwumdzTnotnnLZunQvoMGz1gzBAyB3IMAFgOq1FEsKxWC01LxycSNIGzZskWVJ91uZdIvR4wYodVcg06vz85zxPJBYTcsYomNPt9zzz1aKdYvghMrgkDEJFX4KL6DfwUzStBCSQDMBH7zzTfVL+VW18rOg7TvGgKGQLwRqFKliqBISIluvxbVeI84/N5hvSEKntoHHPgoGRxlMSQsxViMn3/++f3AcCoiUs0x6mqT6T2lNWvWaME5FCETG3slKZwtWrTwbS4TpzFkyBAtYgepat++vVa7pYWe5hhFuWcHYFJepk+frkE/mKAoxmPNEDAEciYCnLZOPvlkPYSQ/+6XSTZnopX9URFM988/O7TcM5tvlCd01vahQ4dK9+7d0ygRQlywJFMZMY4N98K4ceM0ZdSdhXH00UdrNUc/NSYgd9wHoaT8+QtEK5QUJUFgMgD+kiVLpF+/fjJ37lzPmIQ4ThrrkyFgCGQMAU6JuBIodkNRGzaEKDerjPXaPuU3AtRcIFDRrYUAeSEehTLucQxYxcpOxg3BlImNec2cHj9+/H4l5v3Gbb97btu2bU9iPfsgb8a1oyYI9AHGtGXrFvn0k0/l448/Vn0EHopb8zpoLOz6hoAh4B8CLPakfp100kkaoIagDGtbKrsVnBLnoORVetw/9HLelcj+wHK0bNmyNBtt8+bN1R0SN00Mx1VD/9iTEhsWMOInOl/TWfLnyx/KA8tVLgYvRDFFwTD3uhv2hAK63cQQMASCQCCPuhHwn8bxZJjZEbNZUK4YZUgsIMRs+Wlazmx/Uu3zZLRQ8Kh///5ptASwMCGm1LRp01gNa/v27XLrrbcKMRLuAyupmbhGiKUJq+V6ghAW0HYfQ8AQMAQygwAbBAFpCD9BEFCBRK/FWsYQAL8VK1Zo4J072I8rYMYH37hYEQikf+2114Ryzps3b95vkBBeaiQ88cQTUqRIkYwB4MOnQicIMCRSNBYtWiSYUZj8TsSkD+OxSxgChoAhkCMQSCWp5bgCjnX4hhtu8DyRo6iJcNa1114b+R7Es0azoXXr1poN4m5YD7AkkdkQpnUsdIIASyKtYteuf6VAgYM0xTGVfYRxfTGsX4aAIZDaCKQaQWBd3779d81iIBbEqQgY9VMgpf6yyy5LI5pEv0qXLq0Bi8gXh7nxujFBIhxXCJkXXmJflK7GehCETDh7Moqd//67UwoWLLRf3E7oBCHqyWL3NwQMAUMgFRBIJYLAJoMLhBM5OgjDhg2TqlWrxgJmiAv1dsj190ptJ6B17NixkakrYuXg/mTcuGtHAGCJEiXUelCnTp1ADtOIMqFbQbwLRIoYCEcjwghCLKawdcIQMAQMgf0RSDWCQFYA5nwCRefOnSPVq9eIxSMFx+XLl6sP/8svv0zTJyzYFPN77LHHVBshTEsCpZynTp2qG/S6devS9A33O/UY0HMIwnrADWOlpBiLGWOdMAQMAUMg5ggYQfDvAWE5eOWVV1Rd0Z0+yF0IAiUAdPiI4XJilRNDIQmQAwoIsvm7a0Y4I8e6Qb/Lli3rHxiuKxlBCAxau7AhYAgYAsEgAEGgMuXo0aP1VN6rVy81g8exxa0WgxdGmO/x8z/yyCNpxJP4PJYEymnff//9as4PKngerLZu3apumOHDh+u/vdqJJ54oY8aMkerVqwcq9GUEIY5vlPXJEDAEDIEDIEDAmqMESEB3XOWiU4EgADUndaokTpkyRVV1vRqndfzwFPgqU6aMr9YEniUZfIMGDZJZs2alkVJ2+kPqJcXFyGoIWgU0VgSBiYRpxdF9JhjCshhsnTQEDAFDIHURSBWCgFWGOjykNr65YAGyup6gE2iJeZ96CPXr11ethKzGJnBP6lRQJHDkqJHywvMvyPr167WAoFc7tGhRGdC/v1acLFy4cOCTIlYEgSpbAwYM0GCRRo0aqShEUKacwJG1GxgChoAhYAjoZkeNgFtuuUWzGMhoqFatWiyRoa9Lly6VHj16yJw5c9It2odUN+OgbkOt2rWk/PHldb9ijOkdbIl5gBSQIYDFgLo/iCBBTvh5skbGwh133KHBnmGVQCAmgwBO9BcgTokVlkPPYohDLYZYzlrrlCFgCBgCKYoAp2QOffPmzVOTeKtWrQINrMsuTPR31apVmlo4Y8aMpKZ+5z5YD4oVKyZnnnmmKjNiXShZqqQUKrjX7ZMnj8ju3Xtkxz875M8//tT6Pmy44LF69WrP9MXEMUA20GQgRqJNmzaqDxRWo5IjVY5RmyQ1tW7dukqAaEYQwnoKdh9DwBAwBHIwApzMHZ2BvZtmnliP1hEIIlCQFMdkwYLujRwCxAZKPQdkj53aH8Q0EAiJ6BFudP7vpbvgBgXycfbZZ8tDDz2k1oqwLeqQJfrJ3/QlMebBCEKsp7B1zhAwBAwBQyBIBHB7EzBIdgPuAC8lwyDuD4HCKkEgIi4FshayGucQRP/MghAUqnZdQ8AQMAR8QICod06jNALWHNOvD5e2SyQgwOl548aNmjnw+OOPyy+//JKmmqKfgGFhOeecc6R3795q0g/TpZCZcZgFITNo2WcNAUPAEAgJATYtgugGDx6sfm5M0GGW+g1pmLG5DXjjj//qq69k8uTJMm3aNA0q9MuigMUAtwTEoEOHDlKvXj1Noww6jTE7AEdAEH6Tli1byrvvvqv1zckHjSt7yg6w9l1DwBAwBLKDQCopKWZnnHH8LpabNWvWaDbGzJkzZdmyZWpVIK6A2AWezYEahIDNH4nko48+WokBwZsIH2UnbfJA9/Xz96ETBMxlTz/9tNbprlGjhjRt2jQ2Vb/8BNauZQgYAoZAdhAwgpAd9LL/XfCHDGz7fZv8tP4nJQnvvfeefPLJJ2pZSAxE5LOQAWIIcAMVL15cVS/JduDPcccdJ5Rs5ndxizNID6nQCQJAYrLZs2e35MuX/78pIvGOds3+VLMrGAKGgCGQOQRSiSDQV4oNLV/+jeTJk1dOP/10DcDLSQ2ywN7l6Bts2rRJ6zrsFf7brZs/WQ3FiheTkiVK7tNLOJBmQtQYMZ4vvvhCtm7dImXLHi2VK1fe5/YInSBEDYbd3xAwBAyBVEAglQgCG+Tzzz+vIj8HHXSQ+vCpa2At/ghAcoiJQLfhmmuuUS0Gx+1vBCH+z896aAgYArkQgVQjCHEt95wLp06mhhwrqeVM9dw+bAgYAoZALkUAgsCpvFu3buqKnT59mtSqVTuWaKRKLYZYghdxp4wgRPwA7PaGgCFgCGQWAQjCkiVLVMOfADgkeAl2i2MzghDHp5KxPhlByBhO9ilDwBAwBGKFABK4ifLFcY2AN4IQq2mTqc7EiiCQR0pRiD///EOKFSvue73tTCFjHzYEDAFDwBDINgJGELINYWQXiBVBoJAFJSXff/99adu2rXTvfqcULFiQulH6NxGwXo30kr//3is56m6k1SBG4aVI5ahj7dz5j+d3SbXku16FRZj0FN/YvXuX53cPOuhgTWXx+q5TuEPES1Ajj0aJJpNNRaRjx46/szTWvbm53uVE8+cvoPfNylgPPrhg0iIipMnslYPN3Fh5Noz1n392eI41b969IiNepya+m95YCxQ4SOeT11g5kfFcSbX1atkZK/3FX+xu2R0r/d2161/P/h5orGjNJ3s2B37nmIfezxXpX3vn9qrvJVtfsvPOpbe+RLabJLmxZTHE7YlkvD+xymJwyj2TUlG2bFmpVKmSLjJsXNQSR37SvaizuFJPe8SIEZ5lORGg6Nevn6d/jg3oqaee0nKWTGJ3Q6zprrvu0o3I3bZv3y733Xef+gHdjU0AgsMfr40euc57771X64G7G/fintzb3di88Dk+8cQTunm6Gz7Ivn37amlQd2OhQkt89uzZnkpfF1xwgWLspVy5ZcsWueeee7RMqbtB2q688kpp0aKF5+b36aefKv57N6L9G5sI16VMqrtBokiHGjdunGeN9CpVquhYDz/88DTfhRwMGTJEFixYkOZ3zJ+LL75Yunbt+l/yuf9H1q9fL3369FGlNHeD8HXp0kUuueQST2KCAijSt2zY7kb9dnA46aST0vwOEvXCCy/Iiy++qGps7oaELnONPGp3A1dkdj/66KM0v+Pdad68uVx99dWe5Pr777/XsZKz7W7Mg5tuuknL13q9c5SqpdKdUwsg8fslS5bUsZYvXz7NdSHziKEhVetVzQ7hGMrsMjfcjXfuP//5j3z++edpfsc7hx++Xbt2nu/c0qVLdazJ3rk777xTatWqlea6rAuvv/66jBkzxvOdO+aYY3SsRx11lOc7h3Y/ante6nro7N92222e79yvv/6q78Y333yT5rqsKZ06dZJLL73U851L84WIf+DoIDAWCH1O1EGIGOLAbu/oILAHoPgYqQ4CBKFFi5aac5nYOMmMHTtWX373YsULzCZCxSuvTZMXl03x5JNP9txIWIwzlzBCAAAV8klEQVTYOL0IQuPGjWXChOfk0EOLpvkufW3SpKlaO9yNxapnz57Sq1cvz4UZxS02Ka9Nk4V5woQJurC7Gwvq6NGjpXv37p4a4BAqKo95BSvhtrnpppsVK6/FisV17NgxUrhw2k1o48YN0qjRxSqY4W4sVv369ZVbb71VOBG5G3rxSIh6bZqQoalTp8iFF9b33DQfffRR3RiZpO52xhlnyKxZM6VEiZKeGwk5uy+//HKa3zF/2DCHDh3qSfxWrlwpjRo1Ev52N8gQfUIG3Ot0PGXKZOnYsZPnpsnmPnv2LKlWrbrHprlD+vXrLw8//LAnQWDjIkr9sMPSkqHff98mbdu20+fubizGbPIDBgzwJENLlnwhDRs20kI07sY7x1y74oorPAnCc889J9dff31SUs5YTz21quemyXsBufB658B+4sQXkr5zzZo1Vyl2r3euR48e0qdPb+F07W4ffviBjhWS4W68c+PHj5OWLS/1fOdYe26//XbPd+6EE05Q7Pnb3ZjzvBcQIq937rLLLpMnn3zSk/j98ssmfeeoIOj1zkGU6JMVaEoDj/0gJARC10HghYJxu1kzJzfEGrzENXjxPvjgA5k4caLnC3zEEUfIjTfeqBYJd+M0M3XqVD1pei1WnNyuuuoqT4ZPXyEWXqdqNg8IAIudl0n5u+++k5EjR3pumizM3BOW7W70EfL0yiuveG6akCHGWqJEiTTfhTxNmjRJCY3XYgW2YOxVbxwzExaa1atXey7MkBksEF6b5tdff63kzuukycLMidzrVA0ZeuONN2TGjBmemyYkiM2Pk7m7YS1hA0P21N0gCGy4l19+uSd5+/nnn3WsGzZs8CQIkJ3atWt7WhBYzJ999lnPTRMyRH+9NhKsBpxSIbJep2pYO5uxlyULXLGCeVmyIAhY3bDueG0ka9eu1Y3aq9Y98wBCzoney4KAxQKrhxcpRyWPsXLicDfIHu/cm2++6fnOnXrqqdK5c+ek7xykZfny5Wmuy9xr2LChWne83jkIH2P1Iqq8c1jBIJ1e79w777yj75xXYR6sdbxzpUqV8lxfXnrpJSU0Xu/c2WefrQRsrxt1/4alg/6uWrXK851Dhr5+/fqxLuYT0j5lt4kIgdAJguOL9dqsOb15vfhgwwKbrKoWixuLXTJfNQuWl1mX67LocF8vX3V6feW7LMjJ2D2bgNfC6jzn9MZKf71O1Hz3QGMFI68NKMqx8mySVSxLb6w8z2QxHo5kd7KxMo+SSZwy93g2yQqupPdc05uHYJzeWHk2yeZhVGNNtXeO55osTimqdy6K9SWi/cJum8sQCJ0g5DJ8bbiGgCFgCBgChkBKImAEISUfm3XaEDAEDIH4IeBYcZJZ57CwJbMSY4lJz0qMmyaZlTg96xzWy/QskbgrvSzajpU4PYsV303WsjpWx5qYlbE6FrZkmWpYTpONlXG6LeJGEOL3jlmPDAFDwBBISQRWrFih2UVewdls8AQWn3XWWWnGxqb11ltvaZaPF0koU6aMBoOSseZubHrEpxG7lSz2ipgvrzgQ0u4JZibbx93YbIntIe4lWewVsUzJYq+QyD7llFPSXBcSRVbelClTPF3JxF4xVq/sLQgJQegffvhhmus6sVft27f3jDMjk4mxUnXT3SAHxGwRz5RITGJDELz8eDyg/AUKiF/FoNVvvfMfZVAHFTgosOAfJ3YhGYvmASSLe0jJVcE6bQgYAoaAiG5cDRo0SCeTZLymbrobm6aTSeIVu0XgLwG+B8ok8Todk0lCkK9XCjGZJGS+pJdJQoVKr1izefPekObNWyTN3iLoFXLhbujUsFH37t3HkyBUrVpVs6GOPDJtKvsff2yXa6+9TomUu0EQCMQdPnyYHHJI2hRigmHpT7JUdtK3CZROJEOxIAhspK+++up+7JFNlOwE8oibNGniGfGc2TeSiUcKGxkGRCWTReBlisnIdYmUJlebjZ4HmjiBiE6mZCZs2t0YFwyaCHAvPYKM3Ns+YwgYAoZAHBFYtmyZ6lgk06LgZOyl/8LGDgEgJdSLIKBFQTo0lgQvCwK6MaRbexGE888/P+l6S/YW/fXKmmFNJ+uLDC4vtwjrP+nFyfRfSMn10n+BDKHLQxaWl7WkYsWKOlYyhdwNawXZccn0Xy666CJN0faylpDqzFi9MtVwh5AaTmZe7CwIEATYi6MpQDoRkwSTSNGiRTUtskXLFpI3T17Fi02d7/C3828mBj9jcG7fjfM7wIVNkgaISYoURed6DlFwJljiNZzv81mHXTGhSLcitRJTEWTGaVt/3SqdOnZSTQHGQVodjXQpHgTCNDBICIIzjmR9pl/uvjh9pl/O77lO4v/juHhYnwwBQyBnI0CWTnqqqmxcyTK/2CzTU5BlvUxPuTOZgixquekpyNLf9NRyk1l7szPWAynI0t9kMQi4GdJTy02mIOsoA6enIOuOt4iNBQGCgAoam+4DDzyg6WCc9snDJqcdxT1yjQENMxObL2ypSJHC8vnnX+imD2v9v//7P6lTt44UL1Zc38Tftv0mb7/1tvzwww+qEDVo0CBB+e+FF55XkRfy6NEWQCMAq8D8+fP1e5hiAAu1M+4LMy5ZqqTUrVNXN3pIAUp9kBlymevUqbMvhx2GiEofDxJ1N8w+MFBEfSAUKMjxsLjuTz/9JCgG1qxZU31ObPS//PKLvP3O2/LD9z9IhQoVNHcbBg3bZZyYyiBO9P2444+Xs886S/sHJvivsLp45dPn7KXJRmcIGAKGgCHgJwKxIwio/WFCgSkiUoRVAYVEfC6cvNnECVTh5IxACRsmcqX8HPLA5ozAyCOPPKIbKWqHmHLYkBHc4XOQD+qsE/fAJo9ZBdPW2nXrpF7durpJs/nmL5Bfbr3lFpk+fYZ+nz/HlisngwYOVBnlxYsX6z0RmkEZ7phjjk3zbPBtITAE2fh44UIpd+yxupnj4li4cOE+01XjJo3lwQEP6v/pEwE3jJHxHHvssRqYwr9btmypn+EPJiOuW61aNUHaGYsL5AMzEsFApsDm56ti1zIEDAFDIHchECuC0Lt3bznnnHN0c+MUDVGg8iNRmfhkOOVv3rxZP0OgC8EwuAxQxMNkj++GIAuCMAYOHKixAUShYnJ58MEHVb0RqwRmfggCZh70zps1a6YkglM/92BjRrUOawL+HOSN77//frVmUCcB+VOU9rg3SnIQFT7j5adyE4SjypRRyWjU+FCxgxANHTpE5s2br7K3kCFVfDvzTOl+550qzYu/ivvXql1LmjRuosQGAsS48YFBfPg/AUIE46AOiYodVgZrhoAhYAgYAoZAVhCIFUHAWrB79x4pXHhv4SRO8mx2I0eNkmKHH65BhfipCGYh+IO0GIgCLgcKyxx22GH76hgQX4BpHmIASWDjxAWBdCnuBmohpEcQ2NixEkAKOJFTcAV3ALLCBMpwOsetwOmeexcvvtel4W5uglD00EPVjYKFgr6ULl1GvvrqS3V7IEmMNQRJ3s8++0zdG++9/778vHGjEEnL97COUCgH6WlkdLGqnHjiiSpX/OWXX2pAJ8QAiwJ4WDMEDAFDIGwEWLs5yPA3a6WXP92vPmFZZV/wIzsM63IydVb6G/RY/MLEr+vEiiBgQWDjd2oj4EogpgCfPxX4IAs8IDZXNmlO1kSZYimYM3euFD7kENVTxypA5CoxB6TOYFXAokAwCpsycQGJBAEXA0GL5MISC8BEY4MmjxUrwrBhwzTCE/cEFgzM+JjziY3ILEE4pFAhDY4kXoDvcy0mJBOTvjFGXAxMeHJoN2/ZLJ8v/lwJCoWlIAjlypWTt995R9atXat5q3wO7XvIS4OGDaRI4SL6byMIfr0mdh1DwBDIDALEX2ElJeceK6lXIb3MXC+9z3IYeuaZZzRei3Xaq9ZMRu4FmaEqJwdPr8ZazfVZ83NLixVBIEiR8snEHjgpgE52AadlNk987osWfaY5okwMTvE8OErLEgDISZt4BdwUWBwob8zfBAhCMgg+ZPPFMoBLgMI8XBdiQdAg5IITOPEFuC0gBx07dZIHBwzQQkiIgHTp2lUaXHSRbs4EOFLpjb+9UibdFoSSJUqoRYN7jR8/XlN+OPljESD9kQI5kBncGIyFdEmyOEgPMoKQW15LG6chkNoIEBzerGmz/waEv6AHm6AaBd+uvfZaqV69upDu6FVGPCP3hiBgwWXdpzkKi05tFgrkESzvlbqYkeun4mdiRxDwyycSBAfU/QnCIrUqkH968803a/wAmQBkAWBdOP744/VnPFAIAPEEkAA+T3oiDBMSgWmeOIa1a9fJaadV1bgHrAh8D/IB++X7/BwrBbENWBeIXyh/Qnk5v/b5msJInwcM6C+lSqVV+UokCAQlErMAWSFIEbJDH5wcXLIhiIOg1DPxFLBuiAOuDQgPTBxycSALwqFFDjUXQyq+jdZnQyCHIABBaNqkqa7HWGc5yLEO44plDcWKS54/1S4JJmdzxirLGsmayvrORkyWGD9njcSizOcI8saCTFVQDpLozXBAJNOLeDI+S8lvMrr4HT9nzSSejcMYB0T2C+LG3NYGNHJYg7EWE//F+ovrm8yw/PnzSaVKldW1y+fYb7De0heC6nFZE+e2cuUKLUeOBRtrA7+jT7iMOUji4sZizJ7CeNgjOFwS/wYmWdXmCWLqxIYgwMw4UTuiFu58TDZpXAX8HHlLgATcdevXKePjQe74e4c+ADZYXAU0shweeugh3eQhCfjvmWCIWBCjQIAhpjD8ZWQbYPrngXJqJ/gP3z7Bg5t+2SQljiihTJVJSBszZoz+nslM+qSXiAcT9O6771bXCP1kkjORcAkQF0EZXvrE2Ejb5GXA1cJE43r0CTcHpOXa666TwYMG6UvD/XB3cG0mP0GcCGAwmXEtgJGlOgbxytg1DQFD4EAIuAkCayTxUax/bN6sXayzBIHfe999snnzL3L1VVcroWDT/vOvv6R6tWp60GMN5yDIwe/HNWtky+bNurZhHcbKSsYXBygsCFh8ieX6+OOP9YCFq5h1l+/iuoUksAFjJe7Xv590aN/BM7icPhIsDvHA2owMMcSCQxwp+cSzQXQ44LEPUM6egyPB5Fu2bNHfsX+wz+AGRxiPWDVwWP3jj/Lvzp0aP8ZewN7FXoaVhf57CSQdCO+gfh8LgsDg8MOr0E/evJI/X7404wVAp1QurgGHZTnBMFgH/t31r3B6hkQ4QTFck9gDHgSmJyYl3+FvJy2S33F/R7iImzspgvyc7//x5x9S+JDCOjGdaycWJklP2MKr3851uTbXdL5P3zBtwWD5OWNxxJvoM99j7GDgYOL+f2L/g5o4dl1DwBAwBJIh4CYIHIJwybLO4UpmfSMDi1M4GzxB2vj3+QxZXsSOcbLmoIb+S+fOnXXd5W8OQGykXIvDExLCWFexUpCuzobMzxGvI67riiuu0E0dty6WW071BK9zHbK9cE27T+1ugkDGGodH4tXYG0ifh3xwuGzTtq3069tX+wAB4Xd/7/hb7ulzj1oR0MyByEA2uA4ub6wT3AMLNgdXxqkxELNmynnnnhebiRUbghAbRKwjhoAhYAgYAtlCIBlBgADg3uVAh34Lm//8+fNkzZq1ms7OqduJ7cKFwAbKJg55wCrMKZ3DESd6Nnz0YSAKfDeRIEA6sKpiZVixcoVceMFeDR1O8tyDWAWstVgHsGy4FRrdBAH9Gb5DLBjBkJAOLLZPP/20uk3oIy5oLCCk1ePKgBiQYTdl6lTp3auXxqphscbSQV8hNnzm9NNPkw4drpD33ntPLdJYjePSjCDE5UlYPwwBQ8AQyCEIJCMIxHQ9/czTsv337ZrFReC4c4rHXYoZHncwVl3cxZzQiUnAhUB2G65VCELHjh11c8Xkj9sCq0EiQSDYm6ByTvxsvPwNKSlfvrySASyxuDIISqRPByII1GPo27evuquJmcDN68jbQxCwaNA3+o9VpFjx4vL1V1/tJQhTpqjbmAqO6Oig40NwOvFuZExUrAjh6CgEW5KZh+shLs0IQlyehPXDEDAEDIEcgkAygoCJnVM3PnyHIMyeM1tW/bBKAxRJa2fDdYovQQrYTInRIqgPCwImfq7DKX369Gny119/a6B4IkHgWmzMnMaJA8P6QAwBPyO2i7gGggbZ+IlPOJCLoeWlLeXFiS9qHBgZbLgoGAPXwWJAHBguBggIfcetjG4NRMKLINCflStXqnulQoUT9hEEsyDkkBfAhmEIGAKGgCHgjUBmCcLHH32sp2wCC9GJ4bRNqnm/fv10kyU4nFM/5nlO/lQzhDBQBZhYhdatW6chCASC467AXYCrgYBH3BpkkhGjULbs0TJ16hTNcjgQQYCQ4BIgQJ04AywSZJfRR+6NFQK3R5Eih8oVV3RQVwPWAYgD/UB0L9GCYATB3hxDwBAwBAyBXIkAp2syFEhtREq+WLHiqnFDpL4ToMeJm3oyiNZBAijSRyAfsQLEFRAbAEHAbI8lAYvDjn92yLKlyzTQkMBDNlpiEchyIE2QwEcCAgkoJF0e6wOuAFwZXB+VWiwJWA3Qm+GaXiqPuCPuuusuVe3FfYA1gGBxLAZOlhmWDNwB/fr3l8MPO0yvT0onLhAsE6Q2khL52GOPaewBrg6sCwQlQiiIYcANwljIvOP3BGdCguLSzMUQlydh/TAEDAFDIIcgwKa8t4zybjXBc0Ln/2ye/D/x904GF9lbxB9ALvDzlyhZQgoVLKSbK0GKiNiRRgiBIAOBVEViBzDn813+zbX5N9YG/u3Ux3Gyw5z4BtLGCVb0Kh/NI3A+774O/6d/BDhyfTIlnFLSjM8poIebxCnwx+dIo3cy5SAkDjZkqoGN0+dkJa2jmhZGEKJC3u5rCBgChoAhcEAEEJbDxYCi7cMPPbRPZfeAX7QPZBsBIwjZhtAuYAgYAoaAIRAUAkuXLZXZs2ZrACMxBV5Vc4O6d26/rhGE3D4DbPyGgCFgCMQYAUz1uBEwzRs5CPdBGUEIF2+7myFgCBgChoAhkBIIGEFIicdknTQEDAFDwBAwBMJFwAhCuHjb3QwBQ8AQMAQMgZRAwAhCSjwm66QhYAgYAoaAIRAuAkYQwsXb7mYIGAKGgCFgCKQEAkYQUuIxWScNAUPAEDAEDIFwETCCEC7edjdDwBAwBAwBQyAlEDCCkBKPyTppCBgChoAhYAiEi4ARhHDxtrsZAoaAIWAIGAIpgYARhJR4TNZJQ8AQMAQMAUMgXASMIISLt93NEDAEDAFDwBBICQSMIKTEY7JOGgKGgCFgCBgC4SJgBCFcvO1uhoAhYAgYAoZASiBgBCElHpN10hAwBAwBQ8AQCBcBIwjh4m13MwQMAUPAEDAEUgIBIwgp8Zisk4aAIWAIGAKGQLgIGEEIF2+7myFgCBgChoAhkBIIGEFIicdknTQEDAFDwBAwBMJFwAhCuHjb3QwBQ8AQMAQMgZRAwAhCSjwm66QhYAgYAoaAIRAuAkYQwsXb7mYIGAKGgCFgCKQEAv8PHjyoKhCbN1EAAAAASUVORK5CYII=;" vertex="1" parent="1">
                    <mxGeometry x="150" width="520" height="385" as="geometry"/>
                </mxCell>
                <mxCell id="21" value="&lt;font style=&quot;font-size: 18px&quot;&gt;Team Search Module&lt;/font&gt;" style="html=1;whiteSpace=wrap;shape=isoCube2;backgroundOutline=1;isoAngle=15;" vertex="1" parent="1">
                    <mxGeometry x="190" y="500" width="90" height="100" as="geometry"/>
                </mxCell>
                <mxCell id="22" value="&lt;font style=&quot;font-size: 18px&quot;&gt;Team Product XXX&lt;/font&gt;" style="html=1;whiteSpace=wrap;shape=isoCube2;backgroundOutline=1;isoAngle=15;" vertex="1" parent="1">
                    <mxGeometry x="365" y="500" width="90" height="100" as="geometry"/>
                </mxCell>
                <mxCell id="23" value="&lt;font style=&quot;font-size: 18px&quot;&gt;Team Inspire XXX&lt;/font&gt;" style="html=1;whiteSpace=wrap;shape=isoCube2;backgroundOutline=1;isoAngle=15;" vertex="1" parent="1">
                    <mxGeometry x="540" y="500" width="90" height="100" as="geometry"/>
                </mxCell>
            </root>
        </mxGraphModel>
    </diagram>
</mxfile>